<svg width="151" height="59" viewBox="0 0 151 59" fill="none" xmlns="http://www.w3.org/2000/svg">
<g filter="url(#filter0_d_309_2)">
<rect x="4" width="143" height="51" rx="15" fill="#612828"/>
</g>
<path d="M32.7544 32H30.4249L35.6593 17.4545H38.1948L43.4292 32H41.0996L36.9874 20.0966H36.8738L32.7544 32ZM33.1451 26.304H40.7019V28.1506H33.1451V26.304ZM49.7786 32.2202C48.7227 32.2202 47.8136 31.9811 47.0513 31.5028C46.2937 31.0199 45.7114 30.3546 45.3042 29.5071C44.897 28.6596 44.6934 27.6889 44.6934 26.5952C44.6934 25.4872 44.9017 24.5095 45.3184 23.6619C45.735 22.8097 46.3221 22.1444 47.0797 21.6662C47.8373 21.188 48.7298 20.9489 49.7573 20.9489C50.5859 20.9489 51.3245 21.1027 51.9732 21.4105C52.6219 21.7135 53.1451 22.1397 53.5428 22.6889C53.9453 23.2382 54.1844 23.8797 54.2601 24.6136H52.1934C52.0797 24.1023 51.8193 23.6619 51.4121 23.2926C51.0096 22.9233 50.4699 22.7386 49.7928 22.7386C49.2009 22.7386 48.6825 22.8949 48.2374 23.2074C47.7971 23.5152 47.4538 23.9555 47.2076 24.5284C46.9614 25.0966 46.8382 25.7689 46.8382 26.5455C46.8382 27.3409 46.959 28.0275 47.2005 28.6051C47.4419 29.1828 47.7828 29.6302 48.2232 29.9474C48.6683 30.2647 49.1915 30.4233 49.7928 30.4233C50.1953 30.4233 50.5598 30.3499 50.8865 30.2031C51.218 30.0516 51.495 29.8362 51.7175 29.5568C51.9448 29.2775 52.1034 28.9413 52.1934 28.5483H54.2601C54.1844 29.2538 53.9547 29.8835 53.5712 30.4375C53.1877 30.9915 52.6739 31.4271 52.03 31.7443C51.3908 32.0616 50.6403 32.2202 49.7786 32.2202ZM59.7058 32.2415C59.0145 32.2415 58.3895 32.1136 57.8308 31.858C57.2721 31.5975 56.8294 31.2211 56.5027 30.7287C56.1807 30.2363 56.0197 29.6326 56.0197 28.9176C56.0197 28.3021 56.1381 27.7955 56.3748 27.3977C56.6116 27 56.9312 26.6851 57.3336 26.4531C57.7361 26.2211 58.1859 26.0459 58.6831 25.9276C59.1802 25.8092 59.6868 25.7192 60.2029 25.6577C60.8564 25.5819 61.3867 25.5204 61.7939 25.473C62.2011 25.4209 62.497 25.3381 62.6816 25.2244C62.8663 25.1108 62.9586 24.9261 62.9586 24.6705V24.6207C62.9586 24.0005 62.7834 23.5199 62.4331 23.179C62.0874 22.8381 61.5713 22.6676 60.8848 22.6676C60.1698 22.6676 59.6064 22.8262 59.1944 23.1435C58.7872 23.456 58.5055 23.804 58.3493 24.1875L56.3535 23.733C56.5903 23.0701 56.9359 22.535 57.3904 22.1278C57.8497 21.7159 58.3777 21.4176 58.9743 21.233C59.5708 21.0436 60.1982 20.9489 60.8564 20.9489C61.292 20.9489 61.7536 21.0009 62.2413 21.1051C62.7337 21.2045 63.193 21.3892 63.6191 21.6591C64.05 21.929 64.4028 22.3149 64.6774 22.8168C64.952 23.3139 65.0893 23.9602 65.0893 24.7557V32H63.0154V30.5085H62.9302C62.7929 30.7831 62.5869 31.053 62.3123 31.3182C62.0377 31.5833 61.685 31.8035 61.2541 31.9787C60.8232 32.1539 60.3071 32.2415 59.7058 32.2415ZM60.1674 30.5369C60.7546 30.5369 61.2565 30.4209 61.6731 30.1889C62.0945 29.9569 62.4141 29.6539 62.6319 29.2798C62.8545 28.901 62.9657 28.4962 62.9657 28.0653V26.6591C62.89 26.7348 62.7432 26.8059 62.5254 26.8722C62.3123 26.9337 62.0685 26.9882 61.7939 27.0355C61.5192 27.0781 61.2517 27.1184 60.9913 27.1562C60.7309 27.1894 60.5131 27.2178 60.3379 27.2415C59.926 27.2936 59.5495 27.3812 59.2086 27.5043C58.8725 27.6274 58.6026 27.8049 58.399 28.0369C58.2001 28.2642 58.1007 28.5672 58.1007 28.946C58.1007 29.4716 58.2948 29.8693 58.6831 30.1392C59.0713 30.4044 59.5661 30.5369 60.1674 30.5369ZM68.0882 32V17.4545H70.2118V22.8594H70.3397C70.4628 22.6321 70.6403 22.3693 70.8723 22.071C71.1043 21.7727 71.4263 21.5123 71.8382 21.2898C72.2502 21.0625 72.7947 20.9489 73.4718 20.9489C74.3525 20.9489 75.1384 21.1714 75.8297 21.6165C76.521 22.0616 77.0632 22.7031 77.4561 23.5412C77.8539 24.3793 78.0527 25.3878 78.0527 26.5668C78.0527 27.7457 77.8562 28.7566 77.4632 29.5994C77.0703 30.4375 76.5305 31.0838 75.8439 31.5384C75.1574 31.9882 74.3738 32.2131 73.4931 32.2131C72.8302 32.2131 72.2881 32.1018 71.8667 31.8793C71.45 31.6567 71.1233 31.3963 70.8865 31.098C70.6498 30.7997 70.4675 30.5346 70.3397 30.3026H70.1621V32H68.0882ZM70.1692 26.5455C70.1692 27.3125 70.2805 27.9848 70.503 28.5625C70.7256 29.1402 71.0475 29.5923 71.4689 29.919C71.8903 30.241 72.4064 30.402 73.0172 30.402C73.6517 30.402 74.182 30.2339 74.6081 29.8977C75.0343 29.5568 75.3562 29.0952 75.574 28.5128C75.7966 27.9304 75.9078 27.2746 75.9078 26.5455C75.9078 25.8258 75.7989 25.1795 75.5811 24.6065C75.3681 24.0336 75.0461 23.5814 74.6152 23.25C74.1891 22.9186 73.6564 22.7528 73.0172 22.7528C72.4017 22.7528 71.8809 22.9115 71.4547 23.2287C71.0333 23.5459 70.7137 23.9886 70.4959 24.5568C70.2781 25.125 70.1692 25.7879 70.1692 26.5455ZM83.612 32.2415C82.9208 32.2415 82.2958 32.1136 81.737 31.858C81.1783 31.5975 80.7356 31.2211 80.4089 30.7287C80.0869 30.2363 79.926 29.6326 79.926 28.9176C79.926 28.3021 80.0443 27.7955 80.2811 27.3977C80.5178 27 80.8374 26.6851 81.2399 26.4531C81.6423 26.2211 82.0922 26.0459 82.5893 25.9276C83.0865 25.8092 83.5931 25.7192 84.1092 25.6577C84.7626 25.5819 85.2929 25.5204 85.7001 25.473C86.1073 25.4209 86.4032 25.3381 86.5879 25.2244C86.7725 25.1108 86.8649 24.9261 86.8649 24.6705V24.6207C86.8649 24.0005 86.6897 23.5199 86.3393 23.179C85.9937 22.8381 85.4776 22.6676 84.791 22.6676C84.0761 22.6676 83.5126 22.8262 83.1007 23.1435C82.6935 23.456 82.4118 23.804 82.2555 24.1875L80.2598 23.733C80.4965 23.0701 80.8422 22.535 81.2967 22.1278C81.756 21.7159 82.2839 21.4176 82.8805 21.233C83.4771 21.0436 84.1045 20.9489 84.7626 20.9489C85.1982 20.9489 85.6599 21.0009 86.1475 21.1051C86.64 21.2045 87.0993 21.3892 87.5254 21.6591C87.9563 21.929 88.309 22.3149 88.5836 22.8168C88.8583 23.3139 88.9956 23.9602 88.9956 24.7557V32H86.9217V30.5085H86.8365C86.6992 30.7831 86.4932 31.053 86.2186 31.3182C85.944 31.5833 85.5912 31.8035 85.1603 31.9787C84.7295 32.1539 84.2134 32.2415 83.612 32.2415ZM84.0737 30.5369C84.6608 30.5369 85.1627 30.4209 85.5794 30.1889C86.0008 29.9569 86.3204 29.6539 86.5382 29.2798C86.7607 28.901 86.872 28.4962 86.872 28.0653V26.6591C86.7962 26.7348 86.6494 26.8059 86.4316 26.8722C86.2186 26.9337 85.9747 26.9882 85.7001 27.0355C85.4255 27.0781 85.158 27.1184 84.8975 27.1562C84.6371 27.1894 84.4193 27.2178 84.2441 27.2415C83.8322 27.2936 83.4558 27.3812 83.1149 27.5043C82.7787 27.6274 82.5088 27.8049 82.3052 28.0369C82.1064 28.2642 82.0069 28.5672 82.0069 28.946C82.0069 29.4716 82.2011 29.8693 82.5893 30.1392C82.9776 30.4044 83.4724 30.5369 84.0737 30.5369ZM91.824 32V21.0909H93.8766V22.8239H93.9902C94.1891 22.2367 94.5395 21.7751 95.0414 21.4389C95.548 21.098 96.1209 20.9276 96.7601 20.9276C96.8927 20.9276 97.0489 20.9323 97.2289 20.9418C97.4135 20.9512 97.5579 20.9631 97.6621 20.9773V23.0085C97.5769 22.9848 97.4254 22.9588 97.2076 22.9304C96.9898 22.8973 96.772 22.8807 96.5542 22.8807C96.0523 22.8807 95.6048 22.9872 95.2118 23.2003C94.8236 23.4086 94.5158 23.6998 94.2885 24.0739C94.0613 24.4432 93.9476 24.8646 93.9476 25.3381V32H91.824Z" fill="#FEFAE0"/>
<path d="M121 20L130.333 26L121 32V20Z" stroke="#FEFAE0" stroke-width="2.04167" stroke-linecap="round" stroke-linejoin="round"/>
<defs>
<filter id="filter0_d_309_2" x="0" y="0" width="151" height="59" filterUnits="userSpaceOnUse" color-interpolation-filters="sRGB">
<feFlood flood-opacity="0" result="BackgroundImageFix"/>
<feColorMatrix in="SourceAlpha" type="matrix" values="0 0 0 0 0 0 0 0 0 0 0 0 0 0 0 0 0 0 127 0" result="hardAlpha"/>
<feOffset dy="4"/>
<feGaussianBlur stdDeviation="2"/>
<feComposite in2="hardAlpha" operator="out"/>
<feColorMatrix type="matrix" values="0 0 0 0 0 0 0 0 0 0 0 0 0 0 0 0 0 0 0.25 0"/>
<feBlend mode="normal" in2="BackgroundImageFix" result="effect1_dropShadow_309_2"/>
<feBlend mode="normal" in="SourceGraphic" in2="effect1_dropShadow_309_2" result="shape"/>
</filter>
</defs>
</svg>
