<svg width="75" height="75" viewBox="0 0 75 75" fill="none" xmlns="http://www.w3.org/2000/svg">
<rect x="1" y="1" width="73" height="73" rx="14" stroke="#A3A3A3" stroke-width="2"/>
<path d="M21.718 62V54.7273H24.63C25.165 54.7273 25.6113 54.8066 25.9688 54.9652C26.3262 55.1238 26.5949 55.344 26.7749 55.6257C26.9548 55.9051 27.0447 56.227 27.0447 56.5916C27.0447 56.8757 26.9879 57.1255 26.8743 57.3409C26.7607 57.554 26.6044 57.7292 26.4055 57.8665C26.209 58.0014 25.9841 58.0973 25.7308 58.1541V58.2251C26.0078 58.237 26.267 58.3151 26.5085 58.4595C26.7524 58.6039 26.95 58.8063 27.1016 59.0668C27.2531 59.3248 27.3288 59.6326 27.3288 59.9901C27.3288 60.3759 27.233 60.7204 27.0412 61.0234C26.8518 61.3241 26.5713 61.562 26.1996 61.7372C25.8279 61.9124 25.3698 62 24.8253 62H21.718ZM23.2557 60.7429H24.5092C24.9377 60.7429 25.2502 60.6612 25.4467 60.4979C25.6432 60.3321 25.7415 60.112 25.7415 59.8374C25.7415 59.6361 25.6929 59.4586 25.5959 59.3047C25.4988 59.1508 25.3603 59.0301 25.1804 58.9425C25.0028 58.8549 24.791 58.8111 24.5447 58.8111H23.2557V60.7429ZM23.2557 57.7706H24.3956C24.6063 57.7706 24.7933 57.7339 24.9567 57.6605C25.1224 57.5848 25.2526 57.4782 25.3473 57.3409C25.4444 57.2036 25.4929 57.0391 25.4929 56.8473C25.4929 56.5845 25.3994 56.3726 25.2124 56.2116C25.0277 56.0507 24.7649 55.9702 24.424 55.9702H23.2557V57.7706ZM30.7868 62.1065C30.2257 62.1065 29.7427 61.9929 29.3379 61.7656C28.9354 61.536 28.6253 61.2116 28.4075 60.7926C28.1897 60.3712 28.0808 59.8729 28.0808 59.2976C28.0808 58.7365 28.1897 58.2441 28.4075 57.8203C28.6253 57.3965 28.9319 57.0663 29.3272 56.8295C29.725 56.5928 30.1913 56.4744 30.7264 56.4744C31.0862 56.4744 31.4212 56.5324 31.7314 56.6484C32.0439 56.7621 32.3161 56.9337 32.5481 57.1634C32.7825 57.393 32.9648 57.6818 33.095 58.0298C33.2252 58.3755 33.2903 58.7803 33.2903 59.2443V59.6598H28.6845V58.7223H31.8663C31.8663 58.5045 31.819 58.3116 31.7243 58.1435C31.6296 57.9754 31.4982 57.844 31.3301 57.7493C31.1644 57.6522 30.9714 57.6037 30.7512 57.6037C30.5216 57.6037 30.318 57.657 30.1404 57.7635C29.9653 57.8677 29.8279 58.0085 29.7285 58.1861C29.6291 58.3613 29.5782 58.5566 29.5758 58.772V59.6634C29.5758 59.9332 29.6255 60.1664 29.725 60.3629C29.8268 60.5594 29.97 60.7109 30.1547 60.8175C30.3393 60.924 30.5583 60.9773 30.8116 60.9773C30.9797 60.9773 31.1336 60.9536 31.2733 60.9062C31.4129 60.8589 31.5325 60.7879 31.6319 60.6932C31.7314 60.5985 31.8071 60.4825 31.8592 60.3452L33.2583 60.4375C33.1873 60.7737 33.0417 61.0672 32.8216 61.3182C32.6038 61.5668 32.322 61.7609 31.9764 61.9006C31.6331 62.0379 31.2366 62.1065 30.7868 62.1065ZM34.3059 62V54.7273H35.8187V57.4616H35.8649C35.9312 57.3149 36.027 57.1657 36.1525 57.0142C36.2804 56.8603 36.4461 56.7325 36.6497 56.6307C36.8556 56.5265 37.1113 56.4744 37.4167 56.4744C37.8145 56.4744 38.1814 56.5786 38.5176 56.7869C38.8538 56.9929 39.1225 57.3042 39.3237 57.7209C39.5249 58.1352 39.6255 58.6548 39.6255 59.2798C39.6255 59.8883 39.5273 60.402 39.3308 60.821C39.1367 61.2377 38.8715 61.5537 38.5353 61.7692C38.2015 61.9822 37.8275 62.0888 37.4132 62.0888C37.1196 62.0888 36.8699 62.0402 36.6639 61.9432C36.4603 61.8461 36.2934 61.7242 36.1632 61.5774C36.033 61.4283 35.9335 61.2779 35.8649 61.1264H35.7974V62H34.3059ZM35.7868 59.2727C35.7868 59.5971 35.8317 59.88 35.9217 60.1214C36.0117 60.3629 36.1419 60.5511 36.3123 60.6861C36.4828 60.8187 36.6899 60.8849 36.9338 60.8849C37.18 60.8849 37.3883 60.8175 37.5588 60.6825C37.7292 60.5452 37.8583 60.3558 37.9458 60.1143C38.0358 59.8705 38.0808 59.59 38.0808 59.2727C38.0808 58.9579 38.037 58.6809 37.9494 58.4418C37.8618 58.2027 37.7328 58.0156 37.5623 57.8807C37.3919 57.7457 37.1824 57.6783 36.9338 57.6783C36.6876 57.6783 36.4792 57.7434 36.3088 57.8736C36.1407 58.0038 36.0117 58.1884 35.9217 58.4276C35.8317 58.6667 35.7868 58.9484 35.7868 59.2727ZM40.6349 62V56.5455H42.1477V62H40.6349ZM41.3949 55.8423C41.17 55.8423 40.977 55.7678 40.8161 55.6186C40.6574 55.4671 40.5781 55.286 40.5781 55.0753C40.5781 54.867 40.6574 54.6882 40.8161 54.5391C40.977 54.3875 41.17 54.3118 41.3949 54.3118C41.6198 54.3118 41.8116 54.3875 41.9702 54.5391C42.1312 54.6882 42.2116 54.867 42.2116 55.0753C42.2116 55.286 42.1312 55.4671 41.9702 55.6186C41.8116 55.7678 41.6198 55.8423 41.3949 55.8423ZM45.3695 62.0888C44.9552 62.0888 44.58 61.9822 44.2438 61.7692C43.91 61.5537 43.6448 61.2377 43.4483 60.821C43.2542 60.402 43.1571 59.8883 43.1571 59.2798C43.1571 58.6548 43.2578 58.1352 43.459 57.7209C43.6602 57.3042 43.9277 56.9929 44.2615 56.7869C44.5977 56.5786 44.9658 56.4744 45.3659 56.4744C45.6713 56.4744 45.9258 56.5265 46.1294 56.6307C46.3354 56.7325 46.5011 56.8603 46.6266 57.0142C46.7544 57.1657 46.8515 57.3149 46.9178 57.4616H46.964V54.7273H48.4732V62H46.9817V61.1264H46.9178C46.8468 61.2779 46.7462 61.4283 46.6159 61.5774C46.4881 61.7242 46.3212 61.8461 46.1152 61.9432C45.9116 62.0402 45.6631 62.0888 45.3695 62.0888ZM45.8489 60.8849C46.0927 60.8849 46.2987 60.8187 46.4668 60.6861C46.6373 60.5511 46.7675 60.3629 46.8574 60.1214C46.9498 59.88 46.9959 59.5971 46.9959 59.2727C46.9959 58.9484 46.9509 58.6667 46.861 58.4276C46.771 58.1884 46.6408 58.0038 46.4703 57.8736C46.2999 57.7434 46.0927 57.6783 45.8489 57.6783C45.6003 57.6783 45.3908 57.7457 45.2203 57.8807C45.0499 58.0156 44.9209 58.2027 44.8333 58.4418C44.7457 58.6809 44.7019 58.9579 44.7019 59.2727C44.7019 59.59 44.7457 59.8705 44.8333 60.1143C44.9232 60.3558 45.0523 60.5452 45.2203 60.6825C45.3908 60.8175 45.6003 60.8849 45.8489 60.8849ZM51.2724 62.103C50.9244 62.103 50.6142 62.0426 50.342 61.9219C50.0697 61.7988 49.8543 61.6177 49.6957 61.3786C49.5394 61.1371 49.4613 60.8364 49.4613 60.4766C49.4613 60.1735 49.5169 59.919 49.6282 59.7131C49.7395 59.5071 49.891 59.3414 50.0827 59.2159C50.2745 59.0904 50.4923 58.9957 50.7362 58.9318C50.9824 58.8679 51.2404 58.8229 51.5103 58.7969C51.8275 58.7637 52.0832 58.733 52.2773 58.7045C52.4715 58.6738 52.6123 58.6288 52.6999 58.5696C52.7875 58.5104 52.8313 58.4228 52.8313 58.3068V58.2855C52.8313 58.0606 52.7603 57.8866 52.6183 57.7635C52.4786 57.6404 52.2797 57.5788 52.0217 57.5788C51.7494 57.5788 51.5328 57.6392 51.3718 57.7599C51.2108 57.8783 51.1043 58.0275 51.0522 58.2074L49.6531 58.0938C49.7241 57.7623 49.8638 57.4759 50.0721 57.2344C50.2804 56.9905 50.5491 56.8035 50.8782 56.6733C51.2096 56.5407 51.5932 56.4744 52.0288 56.4744C52.3318 56.4744 52.6218 56.5099 52.8988 56.581C53.1781 56.652 53.4255 56.7621 53.641 56.9112C53.8588 57.0604 54.0304 57.2521 54.1559 57.4865C54.2814 57.7185 54.3441 57.9967 54.3441 58.321V62H52.9094V61.2436H52.8668C52.7792 61.4141 52.6621 61.5644 52.5153 61.6946C52.3685 61.8224 52.1921 61.9231 51.9862 61.9964C51.7802 62.0675 51.5423 62.103 51.2724 62.103ZM51.7056 61.0589C51.9281 61.0589 52.1246 61.0152 52.2951 60.9276C52.4656 60.8376 52.5993 60.7169 52.6964 60.5653C52.7934 60.4138 52.842 60.2422 52.842 60.0504V59.4716C52.7946 59.5024 52.7295 59.5308 52.6467 59.5568C52.5662 59.5805 52.475 59.603 52.3732 59.6243C52.2714 59.6432 52.1696 59.661 52.0678 59.6776C51.966 59.6918 51.8737 59.7048 51.7908 59.7166C51.6133 59.7427 51.4582 59.7841 51.3256 59.8409C51.1931 59.8977 51.0901 59.9747 51.0167 60.0717C50.9433 60.1664 50.9066 60.2848 50.9066 60.4268C50.9066 60.6328 50.9812 60.7902 51.1303 60.8991C51.2818 61.0057 51.4736 61.0589 51.7056 61.0589Z" fill="#A3A3A3"/>
<path d="M31.3334 44.1667H42.6667" stroke="#A3A3A3" stroke-width="2.33333" stroke-linecap="round" stroke-linejoin="round"/>
<path d="M29.9166 27.1667H44.0833" stroke="#A3A3A3" stroke-width="2.33333" stroke-linecap="round" stroke-linejoin="round"/>
<path d="M37 34.25V44.1667" stroke="#A3A3A3" stroke-width="2.33333" stroke-linecap="round" stroke-linejoin="round"/>
<path d="M37 34.25C38.8786 34.25 40.6802 33.5037 42.0086 32.1753C43.337 30.8469 44.0833 29.0453 44.0833 27.1666C44.0833 24.3333 43.375 21.5 41.25 15.8333H32.75C30.625 21.5 29.9166 24.3333 29.9166 27.1666C29.9166 29.0453 30.6629 30.8469 31.9913 32.1753C33.3197 33.5037 35.1213 34.25 37 34.25Z" stroke="#A3A3A3" stroke-width="2.33333" stroke-linecap="round" stroke-linejoin="round"/>
</svg>
