<svg width="75" height="75" viewBox="0 0 75 75" fill="none" xmlns="http://www.w3.org/2000/svg">
<rect width="75" height="75" rx="15" fill="#D4E0AE"/>
<path d="M26.2209 57.2734H24.6655C24.6371 57.0722 24.5791 56.8935 24.4915 56.7372C24.4039 56.5786 24.2914 56.4437 24.1541 56.3324C24.0168 56.2211 23.8582 56.1359 23.6783 56.0767C23.5007 56.0175 23.3078 55.9879 23.0994 55.9879C22.723 55.9879 22.3951 56.0814 22.1158 56.2685C21.8364 56.4531 21.6198 56.723 21.4659 57.0781C21.312 57.4309 21.2351 57.8594 21.2351 58.3636C21.2351 58.8821 21.312 59.3177 21.4659 59.6705C21.6222 60.0232 21.84 60.2895 22.1193 60.4695C22.3987 60.6494 22.7218 60.7393 23.0888 60.7393C23.2947 60.7393 23.4853 60.7121 23.6605 60.6577C23.8381 60.6032 23.9955 60.5239 24.1328 60.4197C24.2701 60.3132 24.3838 60.1842 24.4737 60.0327C24.5661 59.8812 24.63 59.7083 24.6655 59.5142L26.2209 59.5213C26.1806 59.8551 26.08 60.1771 25.919 60.4872C25.7604 60.795 25.5462 61.0708 25.2763 61.3146C25.0088 61.5561 24.6892 61.7479 24.3175 61.8899C23.9482 62.0296 23.5303 62.0994 23.0639 62.0994C22.4152 62.0994 21.8352 61.9527 21.3239 61.6591C20.8149 61.3655 20.4124 60.9406 20.1165 60.3842C19.8229 59.8279 19.6761 59.1544 19.6761 58.3636C19.6761 57.5705 19.8253 56.8958 20.1236 56.3395C20.4219 55.7831 20.8267 55.3594 21.3381 55.0682C21.8494 54.7746 22.4247 54.6278 23.0639 54.6278C23.4853 54.6278 23.8759 54.687 24.2358 54.8054C24.598 54.9238 24.9188 55.0966 25.1982 55.3239C25.4775 55.5488 25.7048 55.8246 25.88 56.1513C26.0575 56.478 26.1712 56.852 26.2209 57.2734ZM29.7596 62.1065C29.208 62.1065 28.7309 61.9893 28.3285 61.755C27.9284 61.5182 27.6194 61.1892 27.4016 60.7678C27.1838 60.344 27.0749 59.8527 27.0749 59.294C27.0749 58.7306 27.1838 58.2382 27.4016 57.8168C27.6194 57.393 27.9284 57.0639 28.3285 56.8295C28.7309 56.5928 29.208 56.4744 29.7596 56.4744C30.3112 56.4744 30.7871 56.5928 31.1871 56.8295C31.5896 57.0639 31.8997 57.393 32.1175 57.8168C32.3353 58.2382 32.4442 58.7306 32.4442 59.294C32.4442 59.8527 32.3353 60.344 32.1175 60.7678C31.8997 61.1892 31.5896 61.5182 31.1871 61.755C30.7871 61.9893 30.3112 62.1065 29.7596 62.1065ZM29.7667 60.9347C30.0176 60.9347 30.2272 60.8636 30.3952 60.7216C30.5633 60.5772 30.69 60.3807 30.7752 60.1321C30.8628 59.8835 30.9066 59.6006 30.9066 59.2834C30.9066 58.9661 30.8628 58.6832 30.7752 58.4347C30.69 58.1861 30.5633 57.9896 30.3952 57.8452C30.2272 57.7008 30.0176 57.6286 29.7667 57.6286C29.5134 57.6286 29.3003 57.7008 29.1275 57.8452C28.957 57.9896 28.828 58.1861 28.7404 58.4347C28.6552 58.6832 28.6126 58.9661 28.6126 59.2834C28.6126 59.6006 28.6552 59.8835 28.7404 60.1321C28.828 60.3807 28.957 60.5772 29.1275 60.7216C29.3003 60.8636 29.5134 60.9347 29.7667 60.9347ZM33.4279 62V56.5455H34.8697V57.5078H34.9336C35.0472 57.1882 35.2366 56.9361 35.5018 56.7514C35.7669 56.5668 36.0842 56.4744 36.4535 56.4744C36.8275 56.4744 37.146 56.5679 37.4087 56.755C37.6715 56.9396 37.8467 57.1906 37.9343 57.5078H37.9911C38.1024 57.1953 38.3036 56.9455 38.5948 56.7585C38.8884 56.5691 39.2352 56.4744 39.6353 56.4744C40.1443 56.4744 40.5574 56.6366 40.8746 56.9609C41.1942 57.2829 41.354 57.7398 41.354 58.3317V62H39.8448V58.63C39.8448 58.3269 39.7643 58.0997 39.6033 57.9482C39.4424 57.7966 39.2411 57.7209 38.9996 57.7209C38.725 57.7209 38.5108 57.8085 38.3569 57.9837C38.203 58.1565 38.1261 58.3849 38.1261 58.669V62H36.6594V58.598C36.6594 58.3305 36.5825 58.1174 36.4286 57.9588C36.2771 57.8002 36.0771 57.7209 35.8285 57.7209C35.6604 57.7209 35.5089 57.7635 35.3739 57.8487C35.2414 57.9316 35.136 58.0488 35.0579 58.2003C34.9798 58.3494 34.9407 58.5246 34.9407 58.7259V62H33.4279ZM42.549 62V56.5455H44.0618V62H42.549ZM43.3089 55.8423C43.084 55.8423 42.8911 55.7678 42.7301 55.6186C42.5715 55.4671 42.4922 55.286 42.4922 55.0753C42.4922 54.867 42.5715 54.6882 42.7301 54.5391C42.8911 54.3875 43.084 54.3118 43.3089 54.3118C43.5339 54.3118 43.7256 54.3875 43.8842 54.5391C44.0452 54.6882 44.1257 54.867 44.1257 55.0753C44.1257 55.286 44.0452 55.4671 43.8842 55.6186C43.7256 55.7678 43.5339 55.8423 43.3089 55.8423ZM47.2836 62.0888C46.8693 62.0888 46.494 61.9822 46.1578 61.7692C45.824 61.5537 45.5589 61.2377 45.3624 60.821C45.1683 60.402 45.0712 59.8883 45.0712 59.2798C45.0712 58.6548 45.1718 58.1352 45.373 57.7209C45.5743 57.3042 45.8418 56.9929 46.1756 56.7869C46.5118 56.5786 46.8799 56.4744 47.28 56.4744C47.5854 56.4744 47.8399 56.5265 48.0435 56.6307C48.2495 56.7325 48.4152 56.8603 48.5407 57.0142C48.6685 57.1657 48.7656 57.3149 48.8319 57.4616H48.878V54.7273H50.3873V62H48.8958V61.1264H48.8319C48.7608 61.2779 48.6602 61.4283 48.53 61.5774C48.4022 61.7242 48.2353 61.8461 48.0293 61.9432C47.8257 62.0402 47.5771 62.0888 47.2836 62.0888ZM47.763 60.8849C48.0068 60.8849 48.2128 60.8187 48.3809 60.6861C48.5513 60.5511 48.6815 60.3629 48.7715 60.1214C48.8638 59.88 48.91 59.5971 48.91 59.2727C48.91 58.9484 48.865 58.6667 48.775 58.4276C48.6851 58.1884 48.5549 58.0038 48.3844 57.8736C48.214 57.7434 48.0068 57.6783 47.763 57.6783C47.5144 57.6783 47.3049 57.7457 47.1344 57.8807C46.964 58.0156 46.8349 58.2027 46.7473 58.4418C46.6597 58.6809 46.6159 58.9579 46.6159 59.2727C46.6159 59.59 46.6597 59.8705 46.7473 60.1143C46.8373 60.3558 46.9663 60.5452 47.1344 60.6825C47.3049 60.8175 47.5144 60.8849 47.763 60.8849ZM53.1864 62.103C52.8384 62.103 52.5283 62.0426 52.256 61.9219C51.9838 61.7988 51.7683 61.6177 51.6097 61.3786C51.4535 61.1371 51.3754 60.8364 51.3754 60.4766C51.3754 60.1735 51.431 59.919 51.5423 59.7131C51.6535 59.5071 51.805 59.3414 51.9968 59.2159C52.1886 59.0904 52.4064 58.9957 52.6502 58.9318C52.8964 58.8679 53.1545 58.8229 53.4244 58.7969C53.7416 58.7637 53.9973 58.733 54.1914 58.7045C54.3855 58.6738 54.5264 58.6288 54.614 58.5696C54.7016 58.5104 54.7454 58.4228 54.7454 58.3068V58.2855C54.7454 58.0606 54.6744 57.8866 54.5323 57.7635C54.3926 57.6404 54.1938 57.5788 53.9357 57.5788C53.6635 57.5788 53.4469 57.6392 53.2859 57.7599C53.1249 57.8783 53.0183 58.0275 52.9663 58.2074L51.5671 58.0938C51.6381 57.7623 51.7778 57.4759 51.9862 57.2344C52.1945 56.9905 52.4632 56.8035 52.7923 56.6733C53.1237 56.5407 53.5072 56.4744 53.9428 56.4744C54.2459 56.4744 54.5359 56.5099 54.8129 56.581C55.0922 56.652 55.3396 56.7621 55.555 56.9112C55.7728 57.0604 55.9445 57.2521 56.07 57.4865C56.1954 57.7185 56.2582 57.9967 56.2582 58.321V62H54.8235V61.2436H54.7809C54.6933 61.4141 54.5761 61.5644 54.4293 61.6946C54.2826 61.8224 54.1062 61.9231 53.9002 61.9964C53.6942 62.0675 53.4563 62.103 53.1864 62.103ZM53.6197 61.0589C53.8422 61.0589 54.0387 61.0152 54.2092 60.9276C54.3796 60.8376 54.5134 60.7169 54.6104 60.5653C54.7075 60.4138 54.756 60.2422 54.756 60.0504V59.4716C54.7087 59.5024 54.6436 59.5308 54.5607 59.5568C54.4802 59.5805 54.3891 59.603 54.2873 59.6243C54.1855 59.6432 54.0837 59.661 53.9819 59.6776C53.8801 59.6918 53.7878 59.7048 53.7049 59.7166C53.5273 59.7427 53.3723 59.7841 53.2397 59.8409C53.1071 59.8977 53.0041 59.9747 52.9308 60.0717C52.8574 60.1664 52.8207 60.2848 52.8207 60.4268C52.8207 60.6328 52.8952 60.7902 53.0444 60.8991C53.1959 61.0057 53.3877 61.0589 53.6197 61.0589Z" fill="#191A19"/>
<path d="M23.8334 30H52.1667" stroke="#191A19" stroke-width="2.33333" stroke-linecap="round" stroke-linejoin="round"/>
<path d="M49.3333 30V41.3333C49.3333 42.0848 49.0348 42.8054 48.5034 43.3368C47.9721 43.8682 47.2514 44.1667 46.5 44.1667H29.5C28.7485 44.1667 28.0278 43.8682 27.4965 43.3368C26.9651 42.8054 26.6666 42.0848 26.6666 41.3333V30" stroke="#191A19" stroke-width="2.33333" stroke-linecap="round" stroke-linejoin="round"/>
<path d="M26.6666 24.3334L49.3333 18.6667" stroke="#191A19" stroke-width="2.33333" stroke-linecap="round" stroke-linejoin="round"/>
<path d="M33.5517 22.605L32.9142 20.0408C32.8229 19.6799 32.8036 19.3045 32.8574 18.9361C32.9112 18.5678 33.0371 18.2136 33.2279 17.8939C33.4187 17.5742 33.6706 17.2952 33.9692 17.0729C34.2679 16.8506 34.6074 16.6893 34.9684 16.5983L37.7167 15.9183C38.0786 15.8272 38.4549 15.8085 38.824 15.8632C39.1932 15.9179 39.5479 16.045 39.8677 16.2372C40.1876 16.4294 40.4664 16.6829 40.688 16.9831C40.9096 17.2833 41.0698 17.6244 41.1592 17.9867L41.7967 20.5367" stroke="#191A19" stroke-width="2.33333" stroke-linecap="round" stroke-linejoin="round"/>
</svg>
