<svg width="83" height="83" viewBox="0 0 83 83" fill="none" xmlns="http://www.w3.org/2000/svg">
<g filter="url(#filter0_d_256_40)">
<rect x="5" y="1" width="73" height="73" rx="14" stroke="#A3A3A3" stroke-width="2"/>
<path d="M30.2209 57.2734H28.6655C28.6371 57.0722 28.5791 56.8935 28.4915 56.7372C28.4039 56.5786 28.2914 56.4437 28.1541 56.3324C28.0168 56.2211 27.8582 56.1359 27.6783 56.0767C27.5007 56.0175 27.3078 55.9879 27.0994 55.9879C26.723 55.9879 26.3951 56.0814 26.1158 56.2685C25.8364 56.4531 25.6198 56.723 25.4659 57.0781C25.312 57.4309 25.2351 57.8594 25.2351 58.3636C25.2351 58.8821 25.312 59.3177 25.4659 59.6705C25.6222 60.0232 25.84 60.2895 26.1193 60.4695C26.3987 60.6494 26.7218 60.7393 27.0888 60.7393C27.2947 60.7393 27.4853 60.7121 27.6605 60.6577C27.8381 60.6032 27.9955 60.5239 28.1328 60.4197C28.2701 60.3132 28.3838 60.1842 28.4737 60.0327C28.5661 59.8812 28.63 59.7083 28.6655 59.5142L30.2209 59.5213C30.1806 59.8551 30.08 60.1771 29.919 60.4872C29.7604 60.795 29.5462 61.0708 29.2763 61.3146C29.0088 61.5561 28.6892 61.7479 28.3175 61.8899C27.9482 62.0296 27.5303 62.0994 27.0639 62.0994C26.4152 62.0994 25.8352 61.9527 25.3239 61.6591C24.8149 61.3655 24.4124 60.9406 24.1165 60.3842C23.8229 59.8279 23.6761 59.1544 23.6761 58.3636C23.6761 57.5705 23.8253 56.8958 24.1236 56.3395C24.4219 55.7831 24.8267 55.3594 25.3381 55.0682C25.8494 54.7746 26.4247 54.6278 27.0639 54.6278C27.4853 54.6278 27.8759 54.687 28.2358 54.8054C28.598 54.9238 28.9188 55.0966 29.1982 55.3239C29.4775 55.5488 29.7048 55.8246 29.88 56.1513C30.0575 56.478 30.1712 56.852 30.2209 57.2734ZM33.7596 62.1065C33.208 62.1065 32.7309 61.9893 32.3285 61.755C31.9284 61.5182 31.6194 61.1892 31.4016 60.7678C31.1838 60.344 31.0749 59.8527 31.0749 59.294C31.0749 58.7306 31.1838 58.2382 31.4016 57.8168C31.6194 57.393 31.9284 57.0639 32.3285 56.8295C32.7309 56.5928 33.208 56.4744 33.7596 56.4744C34.3112 56.4744 34.7871 56.5928 35.1871 56.8295C35.5896 57.0639 35.8997 57.393 36.1175 57.8168C36.3353 58.2382 36.4442 58.7306 36.4442 59.294C36.4442 59.8527 36.3353 60.344 36.1175 60.7678C35.8997 61.1892 35.5896 61.5182 35.1871 61.755C34.7871 61.9893 34.3112 62.1065 33.7596 62.1065ZM33.7667 60.9347C34.0176 60.9347 34.2272 60.8636 34.3952 60.7216C34.5633 60.5772 34.69 60.3807 34.7752 60.1321C34.8628 59.8835 34.9066 59.6006 34.9066 59.2834C34.9066 58.9661 34.8628 58.6832 34.7752 58.4347C34.69 58.1861 34.5633 57.9896 34.3952 57.8452C34.2272 57.7008 34.0176 57.6286 33.7667 57.6286C33.5134 57.6286 33.3003 57.7008 33.1275 57.8452C32.957 57.9896 32.828 58.1861 32.7404 58.4347C32.6552 58.6832 32.6126 58.9661 32.6126 59.2834C32.6126 59.6006 32.6552 59.8835 32.7404 60.1321C32.828 60.3807 32.957 60.5772 33.1275 60.7216C33.3003 60.8636 33.5134 60.9347 33.7667 60.9347ZM37.4279 62V56.5455H38.8697V57.5078H38.9336C39.0472 57.1882 39.2366 56.9361 39.5018 56.7514C39.7669 56.5668 40.0842 56.4744 40.4535 56.4744C40.8275 56.4744 41.146 56.5679 41.4087 56.755C41.6715 56.9396 41.8467 57.1906 41.9343 57.5078H41.9911C42.1024 57.1953 42.3036 56.9455 42.5948 56.7585C42.8884 56.5691 43.2352 56.4744 43.6353 56.4744C44.1443 56.4744 44.5574 56.6366 44.8746 56.9609C45.1942 57.2829 45.354 57.7398 45.354 58.3317V62H43.8448V58.63C43.8448 58.3269 43.7643 58.0997 43.6033 57.9482C43.4424 57.7966 43.2411 57.7209 42.9996 57.7209C42.725 57.7209 42.5108 57.8085 42.3569 57.9837C42.203 58.1565 42.1261 58.3849 42.1261 58.669V62H40.6594V58.598C40.6594 58.3305 40.5825 58.1174 40.4286 57.9588C40.2771 57.8002 40.0771 57.7209 39.8285 57.7209C39.6604 57.7209 39.5089 57.7635 39.3739 57.8487C39.2414 57.9316 39.136 58.0488 39.0579 58.2003C38.9798 58.3494 38.9407 58.5246 38.9407 58.7259V62H37.4279ZM46.549 62V56.5455H48.0618V62H46.549ZM47.3089 55.8423C47.084 55.8423 46.8911 55.7678 46.7301 55.6186C46.5715 55.4671 46.4922 55.286 46.4922 55.0753C46.4922 54.867 46.5715 54.6882 46.7301 54.5391C46.8911 54.3875 47.084 54.3118 47.3089 54.3118C47.5339 54.3118 47.7256 54.3875 47.8842 54.5391C48.0452 54.6882 48.1257 54.867 48.1257 55.0753C48.1257 55.286 48.0452 55.4671 47.8842 55.6186C47.7256 55.7678 47.5339 55.8423 47.3089 55.8423ZM51.2836 62.0888C50.8693 62.0888 50.494 61.9822 50.1578 61.7692C49.824 61.5537 49.5589 61.2377 49.3624 60.821C49.1683 60.402 49.0712 59.8883 49.0712 59.2798C49.0712 58.6548 49.1718 58.1352 49.373 57.7209C49.5743 57.3042 49.8418 56.9929 50.1756 56.7869C50.5118 56.5786 50.8799 56.4744 51.28 56.4744C51.5854 56.4744 51.8399 56.5265 52.0435 56.6307C52.2495 56.7325 52.4152 56.8603 52.5407 57.0142C52.6685 57.1657 52.7656 57.3149 52.8319 57.4616H52.878V54.7273H54.3873V62H52.8958V61.1264H52.8319C52.7608 61.2779 52.6602 61.4283 52.53 61.5774C52.4022 61.7242 52.2353 61.8461 52.0293 61.9432C51.8257 62.0402 51.5771 62.0888 51.2836 62.0888ZM51.763 60.8849C52.0068 60.8849 52.2128 60.8187 52.3809 60.6861C52.5513 60.5511 52.6815 60.3629 52.7715 60.1214C52.8638 59.88 52.91 59.5971 52.91 59.2727C52.91 58.9484 52.865 58.6667 52.775 58.4276C52.6851 58.1884 52.5549 58.0038 52.3844 57.8736C52.214 57.7434 52.0068 57.6783 51.763 57.6783C51.5144 57.6783 51.3049 57.7457 51.1344 57.8807C50.964 58.0156 50.8349 58.2027 50.7473 58.4418C50.6597 58.6809 50.6159 58.9579 50.6159 59.2727C50.6159 59.59 50.6597 59.8705 50.7473 60.1143C50.8373 60.3558 50.9663 60.5452 51.1344 60.6825C51.3049 60.8175 51.5144 60.8849 51.763 60.8849ZM57.1864 62.103C56.8384 62.103 56.5283 62.0426 56.256 61.9219C55.9838 61.7988 55.7683 61.6177 55.6097 61.3786C55.4535 61.1371 55.3754 60.8364 55.3754 60.4766C55.3754 60.1735 55.431 59.919 55.5423 59.7131C55.6535 59.5071 55.805 59.3414 55.9968 59.2159C56.1886 59.0904 56.4064 58.9957 56.6502 58.9318C56.8964 58.8679 57.1545 58.8229 57.4244 58.7969C57.7416 58.7637 57.9973 58.733 58.1914 58.7045C58.3855 58.6738 58.5264 58.6288 58.614 58.5696C58.7016 58.5104 58.7454 58.4228 58.7454 58.3068V58.2855C58.7454 58.0606 58.6744 57.8866 58.5323 57.7635C58.3926 57.6404 58.1938 57.5788 57.9357 57.5788C57.6635 57.5788 57.4469 57.6392 57.2859 57.7599C57.1249 57.8783 57.0183 58.0275 56.9663 58.2074L55.5671 58.0938C55.6381 57.7623 55.7778 57.4759 55.9862 57.2344C56.1945 56.9905 56.4632 56.8035 56.7923 56.6733C57.1237 56.5407 57.5072 56.4744 57.9428 56.4744C58.2459 56.4744 58.5359 56.5099 58.8129 56.581C59.0922 56.652 59.3396 56.7621 59.555 56.9112C59.7728 57.0604 59.9445 57.2521 60.07 57.4865C60.1954 57.7185 60.2582 57.9967 60.2582 58.321V62H58.8235V61.2436H58.7809C58.6933 61.4141 58.5761 61.5644 58.4293 61.6946C58.2826 61.8224 58.1062 61.9231 57.9002 61.9964C57.6942 62.0675 57.4563 62.103 57.1864 62.103ZM57.6197 61.0589C57.8422 61.0589 58.0387 61.0152 58.2092 60.9276C58.3796 60.8376 58.5134 60.7169 58.6104 60.5653C58.7075 60.4138 58.756 60.2422 58.756 60.0504V59.4716C58.7087 59.5024 58.6436 59.5308 58.5607 59.5568C58.4802 59.5805 58.3891 59.603 58.2873 59.6243C58.1855 59.6432 58.0837 59.661 57.9819 59.6776C57.8801 59.6918 57.7878 59.7048 57.7049 59.7166C57.5273 59.7427 57.3723 59.7841 57.2397 59.8409C57.1071 59.8977 57.0041 59.9747 56.9308 60.0717C56.8574 60.1664 56.8207 60.2848 56.8207 60.4268C56.8207 60.6328 56.8952 60.7902 57.0444 60.8991C57.1959 61.0057 57.3877 61.0589 57.6197 61.0589Z" fill="#A3A3A3"/>
<path d="M27.8334 30H56.1667" stroke="#A3A3A3" stroke-width="2.33333" stroke-linecap="round" stroke-linejoin="round"/>
<path d="M53.3333 30V41.3333C53.3333 42.0848 53.0348 42.8054 52.5034 43.3368C51.9721 43.8682 51.2514 44.1667 50.5 44.1667H33.5C32.7485 44.1667 32.0278 43.8682 31.4965 43.3368C30.9651 42.8054 30.6666 42.0848 30.6666 41.3333V30" stroke="#A3A3A3" stroke-width="2.33333" stroke-linecap="round" stroke-linejoin="round"/>
<path d="M30.6666 24.3334L53.3333 18.6667" stroke="#A3A3A3" stroke-width="2.33333" stroke-linecap="round" stroke-linejoin="round"/>
<path d="M37.5517 22.605L36.9142 20.0408C36.8229 19.6799 36.8036 19.3045 36.8574 18.9361C36.9112 18.5678 37.0371 18.2136 37.2279 17.8939C37.4187 17.5742 37.6706 17.2952 37.9692 17.0729C38.2679 16.8506 38.6074 16.6893 38.9684 16.5983L41.7167 15.9183C42.0786 15.8272 42.4549 15.8085 42.824 15.8632C43.1932 15.9179 43.5479 16.045 43.8677 16.2372C44.1876 16.4294 44.4664 16.6829 44.688 16.9831C44.9096 17.2833 45.0698 17.6244 45.1592 17.9867L45.7967 20.5367" stroke="#A3A3A3" stroke-width="2.33333" stroke-linecap="round" stroke-linejoin="round"/>
</g>
<defs>
<filter id="filter0_d_256_40" x="0" y="0" width="83" height="83" filterUnits="userSpaceOnUse" color-interpolation-filters="sRGB">
<feFlood flood-opacity="0" result="BackgroundImageFix"/>
<feColorMatrix in="SourceAlpha" type="matrix" values="0 0 0 0 0 0 0 0 0 0 0 0 0 0 0 0 0 0 127 0" result="hardAlpha"/>
<feOffset dy="4"/>
<feGaussianBlur stdDeviation="2"/>
<feComposite in2="hardAlpha" operator="out"/>
<feColorMatrix type="matrix" values="0 0 0 0 0 0 0 0 0 0 0 0 0 0 0 0 0 0 0.25 0"/>
<feBlend mode="normal" in2="BackgroundImageFix" result="effect1_dropShadow_256_40"/>
<feBlend mode="normal" in="SourceGraphic" in2="effect1_dropShadow_256_40" result="shape"/>
</filter>
</defs>
</svg>
