<svg width="75" height="75" viewBox="0 0 75 75" fill="none" xmlns="http://www.w3.org/2000/svg">
<rect width="75" height="75" rx="15" fill="#D4E0AE"/>
<path d="M26.8947 57.2734H25.3393C25.3109 57.0722 25.2529 56.8935 25.1653 56.7372C25.0777 56.5786 24.9653 56.4437 24.8279 56.3324C24.6906 56.2211 24.532 56.1359 24.3521 56.0767C24.1745 56.0175 23.9816 55.9879 23.7733 55.9879C23.3968 55.9879 23.069 56.0814 22.7896 56.2685C22.5102 56.4531 22.2936 56.723 22.1397 57.0781C21.9859 57.4309 21.9089 57.8594 21.9089 58.3636C21.9089 58.8821 21.9859 59.3177 22.1397 59.6705C22.296 60.0232 22.5138 60.2895 22.7931 60.4695C23.0725 60.6494 23.3957 60.7393 23.7626 60.7393C23.9686 60.7393 24.1592 60.7121 24.3343 60.6577C24.5119 60.6032 24.6693 60.5239 24.8066 60.4197C24.944 60.3132 25.0576 60.1842 25.1475 60.0327C25.2399 59.8812 25.3038 59.7083 25.3393 59.5142L26.8947 59.5213C26.8545 59.8551 26.7538 60.1771 26.5929 60.4872C26.4342 60.795 26.22 61.0708 25.9501 61.3146C25.6826 61.5561 25.363 61.7479 24.9913 61.8899C24.622 62.0296 24.2041 62.0994 23.7377 62.0994C23.0891 62.0994 22.5091 61.9527 21.9977 61.6591C21.4887 61.3655 21.0862 60.9406 20.7903 60.3842C20.4967 59.8279 20.35 59.1544 20.35 58.3636C20.35 57.5705 20.4991 56.8958 20.7974 56.3395C21.0957 55.7831 21.5005 55.3594 22.0119 55.0682C22.5233 54.7746 23.0985 54.6278 23.7377 54.6278C24.1592 54.6278 24.5498 54.687 24.9096 54.8054C25.2718 54.9238 25.5926 55.0966 25.872 55.3239C26.1513 55.5488 26.3786 55.8246 26.5538 56.1513C26.7314 56.478 26.845 56.852 26.8947 57.2734ZM31.4668 59.6776V56.5455H32.9796V62H31.5272V61.0092H31.4703C31.3472 61.3288 31.1425 61.5857 30.856 61.7798C30.5719 61.974 30.2251 62.071 29.8155 62.071C29.4509 62.071 29.1301 61.9882 28.8532 61.8224C28.5762 61.6567 28.3596 61.4212 28.2033 61.1158C28.0494 60.8104 27.9713 60.4446 27.9689 60.0185V56.5455H29.4817V59.7486C29.4841 60.0705 29.5705 60.325 29.7409 60.5121C29.9114 60.6991 30.1399 60.7926 30.4263 60.7926C30.6086 60.7926 30.7791 60.7512 30.9377 60.6683C31.0963 60.5831 31.2241 60.4576 31.3212 60.2919C31.4206 60.1262 31.4692 59.9214 31.4668 59.6776ZM35.7024 54.7273V62H34.1896V54.7273H35.7024ZM39.8155 56.5455V57.6818H36.5307V56.5455H39.8155ZM37.2765 55.2386H38.7892V60.3239C38.7892 60.4635 38.8105 60.5724 38.8532 60.6506C38.8958 60.7263 38.955 60.7796 39.0307 60.8104C39.1088 60.8411 39.1988 60.8565 39.3006 60.8565C39.3716 60.8565 39.4426 60.8506 39.5137 60.8388C39.5847 60.8246 39.6391 60.8139 39.677 60.8068L39.915 61.9325C39.8392 61.9562 39.7327 61.9834 39.5953 62.0142C39.458 62.0473 39.2911 62.0675 39.0946 62.0746C38.7301 62.0888 38.4105 62.0402 38.1358 61.929C37.8636 61.8177 37.6517 61.6449 37.5002 61.4105C37.3487 61.1761 37.2741 60.8802 37.2765 60.5227V55.2386ZM44.2988 59.6776V56.5455H45.8116V62H44.3592V61.0092H44.3024C44.1793 61.3288 43.9745 61.5857 43.688 61.7798C43.4039 61.974 43.0571 62.071 42.6475 62.071C42.283 62.071 41.9622 61.9882 41.6852 61.8224C41.4082 61.6567 41.1916 61.4212 41.0353 61.1158C40.8815 60.8104 40.8033 60.4446 40.801 60.0185V56.5455H42.3137V59.7486C42.3161 60.0705 42.4025 60.325 42.573 60.5121C42.7434 60.6991 42.9719 60.7926 43.2583 60.7926C43.4406 60.7926 43.6111 60.7512 43.7697 60.6683C43.9283 60.5831 44.0562 60.4576 44.1532 60.2919C44.2527 60.1262 44.3012 59.9214 44.2988 59.6776ZM47.0217 62V56.5455H48.4883V57.4972H48.5451C48.6445 57.1586 48.8114 56.9029 49.0458 56.7301C49.2802 56.5549 49.5501 56.4673 49.8555 56.4673C49.9312 56.4673 50.0129 56.4721 50.1005 56.4815C50.1881 56.491 50.265 56.504 50.3313 56.5206V57.8629C50.2603 57.8416 50.1621 57.8227 50.0366 57.8061C49.9111 57.7895 49.7963 57.7812 49.6921 57.7812C49.4696 57.7812 49.2707 57.8298 49.0955 57.9268C48.9227 58.0215 48.7854 58.1541 48.6836 58.3246C48.5842 58.495 48.5344 58.6915 48.5344 58.9141V62H47.0217ZM52.5126 62.103C52.1646 62.103 51.8545 62.0426 51.5822 61.9219C51.31 61.7988 51.0945 61.6177 50.9359 61.3786C50.7797 61.1371 50.7015 60.8364 50.7015 60.4766C50.7015 60.1735 50.7572 59.919 50.8684 59.7131C50.9797 59.5071 51.1312 59.3414 51.323 59.2159C51.5147 59.0904 51.7325 58.9957 51.9764 58.9318C52.2226 58.8679 52.4806 58.8229 52.7505 58.7969C53.0678 58.7637 53.3234 58.733 53.5176 58.7045C53.7117 58.6738 53.8526 58.6288 53.9402 58.5696C54.0278 58.5104 54.0716 58.4228 54.0716 58.3068V58.2855C54.0716 58.0606 54.0005 57.8866 53.8585 57.7635C53.7188 57.6404 53.5199 57.5788 53.2619 57.5788C52.9896 57.5788 52.773 57.6392 52.612 57.7599C52.4511 57.8783 52.3445 58.0275 52.2924 58.2074L50.8933 58.0938C50.9643 57.7623 51.104 57.4759 51.3123 57.2344C51.5207 56.9905 51.7894 56.8035 52.1184 56.6733C52.4499 56.5407 52.8334 56.4744 53.269 56.4744C53.572 56.4744 53.862 56.5099 54.139 56.581C54.4184 56.652 54.6658 56.7621 54.8812 56.9112C55.099 57.0604 55.2707 57.2521 55.3961 57.4865C55.5216 57.7185 55.5843 57.9967 55.5843 58.321V62H54.1497V61.2436H54.1071C54.0195 61.4141 53.9023 61.5644 53.7555 61.6946C53.6087 61.8224 53.4324 61.9231 53.2264 61.9964C53.0204 62.0675 52.7825 62.103 52.5126 62.103ZM52.9458 61.0589C53.1684 61.0589 53.3649 61.0152 53.5353 60.9276C53.7058 60.8376 53.8395 60.7169 53.9366 60.5653C54.0337 60.4138 54.0822 60.2422 54.0822 60.0504V59.4716C54.0349 59.5024 53.9698 59.5308 53.8869 59.5568C53.8064 59.5805 53.7153 59.603 53.6135 59.6243C53.5117 59.6432 53.4099 59.661 53.3081 59.6776C53.2063 59.6918 53.1139 59.7048 53.0311 59.7166C52.8535 59.7427 52.6984 59.7841 52.5659 59.8409C52.4333 59.8977 52.3303 59.9747 52.2569 60.0717C52.1835 60.1664 52.1468 60.2848 52.1468 60.4268C52.1468 60.6328 52.2214 60.7902 52.3706 60.8991C52.5221 61.0057 52.7138 61.0589 52.9458 61.0589Z" fill="#191A19"/>
<path d="M35.1666 28.5833H35.1816" stroke="#191A19" stroke-width="2.33333" stroke-linecap="round" stroke-linejoin="round"/>
<path d="M40.8334 21.5H40.8484" stroke="#191A19" stroke-width="2.33333" stroke-linecap="round" stroke-linejoin="round"/>
<path d="M46.5 21.5H46.515" stroke="#191A19" stroke-width="2.33333" stroke-linecap="round" stroke-linejoin="round"/>
<path d="M30.2084 31.5583H30.2234" stroke="#191A19" stroke-width="2.33333" stroke-linecap="round" stroke-linejoin="round"/>
<path d="M52.1666 20.0833C52.1666 32.8333 46.5 37.0833 43.6666 37.0833C40.8333 37.0833 35.1666 32.8333 35.1666 20.0833C35.1666 17.25 38 15.8333 43.6666 15.8333C49.3333 15.8333 52.1666 17.25 52.1666 20.0833Z" stroke="#191A19" stroke-width="2.33333" stroke-linecap="round" stroke-linejoin="round"/>
<path d="M45.65 27.025C44.5167 28.1584 42.8167 28.1584 41.6833 27.025" stroke="#191A19" stroke-width="2.33333" stroke-linecap="round" stroke-linejoin="round"/>
<path d="M35.3083 23.0583C33.7499 23.2 31.9083 23.9084 29.4999 25.1834C24.5416 28.0167 22.8416 30.7083 24.2583 33.1167C30.6333 44.1667 37.7166 45.0167 40.1249 43.6C41.3999 42.8917 42.8166 40.625 42.8166 36.9417" stroke="#191A19" stroke-width="2.33333" stroke-linecap="round" stroke-linejoin="round"/>
<path d="M33.8917 36.375C34.3167 34.8167 35.8751 33.9667 37.2917 34.3917" stroke="#191A19" stroke-width="2.33333" stroke-linecap="round" stroke-linejoin="round"/>
</svg>
