<svg width="385" height="385" viewBox="0 0 385 385" fill="none" xmlns="http://www.w3.org/2000/svg">
<rect x="41.5" y="41.5" width="302" height="302" rx="48.5" fill="#FEFAE0" stroke="#191A19" stroke-width="3"/>
<path d="M82.2766 325V319.495L86.3317 318.635V292.29L82.2766 291.431V285.898H86.3317H99.9743C104.898 285.898 108.738 286.803 111.495 288.611C114.252 290.419 115.631 293.114 115.631 296.694C115.631 298.538 115.192 300.194 114.315 301.663C113.438 303.113 112.086 304.214 110.26 304.966C111.818 305.306 113.089 305.888 114.073 306.711C115.058 307.517 115.783 308.502 116.249 309.666C116.714 310.811 116.947 312.056 116.947 313.398C116.947 317.23 115.667 320.121 113.107 322.073C110.546 324.024 106.831 325 101.962 325H82.2766ZM95.758 317.83H101.962C103.824 317.83 105.22 317.463 106.151 316.729C107.1 315.994 107.574 314.875 107.574 313.372C107.574 312.244 107.395 311.313 107.037 310.579C106.679 309.827 106.124 309.272 105.372 308.914C104.62 308.538 103.636 308.35 102.418 308.35H95.758V317.83ZM95.758 302.119H99.5715C101.792 302.119 103.448 301.77 104.54 301.072C105.65 300.356 106.205 299.255 106.205 297.769C106.205 296.139 105.686 294.958 104.647 294.224C103.627 293.472 102.069 293.096 99.9743 293.096H95.758V302.119ZM121.82 325V319.495L125.203 318.635V302.334L121.175 301.475V295.942H134.093L134.307 299.487L134.361 300.212C135.006 298.565 135.802 297.357 136.751 296.587C137.718 295.799 138.918 295.405 140.35 295.405C140.744 295.405 141.209 295.441 141.746 295.513C142.284 295.566 142.83 295.674 143.385 295.835L142.445 304.482L138.416 304.294C137.485 304.259 136.751 304.366 136.214 304.617C135.695 304.849 135.167 305.243 134.63 305.798V318.635L138.013 319.495V325H121.82ZM155.884 325.564C153.073 325.564 150.782 324.767 149.009 323.174C147.237 321.58 146.35 319.459 146.35 316.809C146.35 315.001 146.834 313.398 147.801 312.002C148.785 310.605 150.253 309.513 152.205 308.726C154.174 307.92 156.636 307.517 159.59 307.517H162.625V305.798C162.625 304.635 162.294 303.65 161.631 302.844C160.969 302.021 159.921 301.609 158.489 301.609C157.88 301.609 157.308 301.689 156.77 301.851C156.251 301.994 155.777 302.209 155.347 302.495L154.703 306.201H148.069L147.935 298.118C149.582 297.384 151.301 296.748 153.091 296.211C154.899 295.674 156.914 295.405 159.134 295.405C163.09 295.405 166.232 296.318 168.56 298.145C170.887 299.953 172.051 302.54 172.051 305.906V316.621C172.051 317.033 172.051 317.436 172.051 317.83C172.069 318.223 172.114 318.599 172.185 318.958L175.328 319.495V325H164.317C164.084 324.678 163.833 324.248 163.565 323.711C163.296 323.174 163.108 322.637 163.001 322.1C162.124 323.192 161.139 324.042 160.047 324.651C158.955 325.26 157.567 325.564 155.884 325.564ZM158.785 318.904C159.465 318.904 160.145 318.77 160.826 318.501C161.524 318.215 162.124 317.794 162.625 317.239V313.049H159.698C158.427 313.049 157.442 313.327 156.744 313.882C156.063 314.437 155.723 315.171 155.723 316.084C155.723 316.961 156.01 317.651 156.582 318.152C157.155 318.653 157.889 318.904 158.785 318.904ZM197.065 325.564C193.019 325.564 189.591 324.776 186.78 323.201C183.987 321.625 181.856 319.441 180.388 316.648C178.92 313.837 178.186 310.588 178.186 306.899V305.127C178.186 301.242 178.911 297.813 180.361 294.841C181.812 291.869 183.915 289.542 186.672 287.859C189.43 286.176 192.76 285.334 196.663 285.334C199.33 285.334 202.007 285.746 204.692 286.57C207.378 287.375 209.741 288.656 211.782 290.41V299.568H205.068L203.645 294.6C203.036 293.973 202.168 293.454 201.04 293.042C199.93 292.63 198.677 292.424 197.28 292.424C195.132 292.424 193.333 292.961 191.882 294.036C190.432 295.092 189.34 296.569 188.606 298.467C187.89 300.365 187.532 302.567 187.532 305.073V306.899C187.532 309.263 187.908 311.313 188.66 313.049C189.43 314.786 190.549 316.129 192.017 317.078C193.485 318.027 195.293 318.501 197.441 318.501C198.569 318.501 199.688 318.385 200.798 318.152C201.908 317.919 202.777 317.66 203.403 317.373V312.324L198.999 311.787V305.288H212.856V321.509C210.744 322.869 208.354 323.89 205.686 324.57C203.036 325.233 200.163 325.564 197.065 325.564ZM229.975 325.564C226.967 325.564 224.604 324.615 222.885 322.717C221.167 320.819 220.307 317.883 220.307 313.909V302.334L217.192 301.475V295.942H220.307H229.734V313.962C229.734 315.395 230.029 316.487 230.62 317.239C231.228 317.973 232.133 318.34 233.332 318.34C234.03 318.34 234.72 318.215 235.4 317.964C236.098 317.695 236.716 317.301 237.253 316.782V302.334L234.084 301.475V295.942H237.253H246.679V318.635L250.305 319.495V325H238.488L237.871 321.697C236.94 322.95 235.803 323.908 234.46 324.57C233.135 325.233 231.64 325.564 229.975 325.564ZM254.076 325V319.495L257.487 318.635V302.334L253.432 301.475V295.942H266.913V318.635L270.297 319.495V325H254.076ZM257.218 290.437V283.105H266.913V290.437H257.218ZM283.871 325.564C281.06 325.564 278.768 324.767 276.996 323.174C275.223 321.58 274.337 319.459 274.337 316.809C274.337 315.001 274.821 313.398 275.787 312.002C276.772 310.605 278.24 309.513 280.192 308.726C282.161 307.92 284.623 307.517 287.577 307.517H290.612V305.798C290.612 304.635 290.28 303.65 289.618 302.844C288.956 302.021 287.908 301.609 286.476 301.609C285.867 301.609 285.294 301.689 284.757 301.851C284.238 301.994 283.763 302.209 283.334 302.495L282.689 306.201H276.056L275.922 298.118C277.569 297.384 279.288 296.748 281.078 296.211C282.886 295.674 284.9 295.405 287.12 295.405C291.077 295.405 294.219 296.318 296.547 298.145C298.874 299.953 300.038 302.54 300.038 305.906V316.621C300.038 317.033 300.038 317.436 300.038 317.83C300.056 318.223 300.101 318.599 300.172 318.958L303.314 319.495V325H292.304C292.071 324.678 291.82 324.248 291.552 323.711C291.283 323.174 291.095 322.637 290.988 322.1C290.11 323.192 289.126 324.042 288.033 324.651C286.941 325.26 285.554 325.564 283.871 325.564ZM286.771 318.904C287.452 318.904 288.132 318.77 288.812 318.501C289.511 318.215 290.11 317.794 290.612 317.239V313.049H287.684C286.413 313.049 285.429 313.327 284.73 313.882C284.05 314.437 283.71 315.171 283.71 316.084C283.71 316.961 283.996 317.651 284.569 318.152C285.142 318.653 285.876 318.904 286.771 318.904Z" fill="black"/>
<path d="M250.5 269H320M148.5 146.383V137.883L153 130.883M153 130.883H117.5M153 130.883L151 133.995L185.5 134L221 133.683L219 130.883M117.5 130.883L125 139.383V146.883M117.5 130.883L125 130.883V112.383H128M224 147V137.883L219 130.883M219 130.883L254 130.883M254 130.883H248.5V112.383H244M254 130.883L248.5 140.383V147M148.5 152.5L151 148.883M148.5 152.5L148.544 272.883M148.5 152.5H137H124.965M219 148.883L221 152.383M219 148.883L221 147H235.5H250L252 148.883M219 148.883H252M219 148.883H151M179 122.383L172 100.883L166 122.383H179ZM179 122.383C181.167 127.55 187.5 134.783 195.5 122.383M195.5 122.383H206.5L201 100.883M195.5 122.383L201 100.883M201 100.883C200.2 93.6835 193.667 89.8835 190.5 88.8835C190.5 87.6446 190.18 86.6401 189.673 85.8834M201 100.883L213 105.383L211.5 109.883C208.5 110.883 203.4 114.683 207 121.883V126.883C211.167 130.217 219.4 134.284 219 123.883L216 121.383L214.5 117.883L216 112.383H219L224 114.383V112.383H227.5M124.965 152.5V272.883H148.544M124.965 152.5L123 148.42L123.982 146.883H150.018L151 148.883M151 148.883H123M148.544 272.883L155.5 270.224M221 272.883V152.383M221 272.883H250V152.383M221 272.883L217.159 270.224M221 152.383H250M252 148.883L250 152.383M155.5 270.224L160 268.383L159 189.883C159 156.383 214.5 157.383 214.5 189.883V268.383L217.159 270.224M155.5 270.224V184.383C155.5 146.383 216 145.383 216 184.383L217.159 270.224M128 112.383V108.383H125L130 67.3834L134 108.383H131V112.383M128 112.383H131M131 112.383H135V124.883L138.5 121.883V112.383H141.5M141.5 112.383V107.883H138.5L143 67.3834L147.5 107.883H144.5V112.383M141.5 112.383H144.5M144.5 112.383H149V114.383L154 112.383H157.5V117.883L156.5 121.383L153 123.883C153.5 127.883 156.8 134.083 166 126.883V121.883C167.333 118.55 168.4 111.483 162 109.883L159 105.383L171 100.883C172.333 97.2168 176.2 89.6835 183 88.8835C183 87.6245 183.281 86.6281 183.735 85.8834M227.5 112.383V107.883H224L229 67.3834L233.5 107.883H230.5V112.383M227.5 112.383H230.5M230.5 112.383H234.5V121.883L237.5 126.883V112.383H241M241 112.383V107.883H237.5L241 67.3834L247 107.883H244V112.383M241 112.383H244M183.735 85.8834C179.3 86.2834 179.397 83.7168 180 82.3834C182.667 77.8834 187 69.7834 183 73.3834C179 76.9834 179.333 70.8834 180 67.3834C182.167 65.8834 186.3 62.1834 185.5 59.3834C184.7 56.5834 185.833 53.8834 186.5 52.8834C186.667 52.2168 187.2 51.2834 188 52.8834C187.5 55.8834 186.8 61.3834 188 59.3834C189.2 57.3834 190.167 57.2168 190.5 57.3834C192 62.7168 194.4 73.3834 192 73.3834C189.6 73.3834 189.448 76.7168 189.673 78.3834C197.54 82.3834 192.951 85.0501 189.673 85.8834M183.735 85.8834C185.14 83.5773 188.199 83.6853 189.673 85.8834M66 270H125.5M184 106.883V113.883L188 116.883L190.5 113.883V109.883L188 106.883H184Z" stroke="black" stroke-width="1.5"/>
<path d="M252.495 151C246.335 155.6 246.025 154.916 237.995 160.58M118.995 225.5C124 226 126.784 224.732 135.312 221.5M122 191.5C121 192 120 192.5 118.995 193M256.5 201.5C261.81 196.943 262.5 196 265 193M110.995 262.5C114 264 124.5 263.5 129.5 261.5M248.995 168.529C255.917 169.311 258 169.5 262 171.5M212.995 177.709C217.244 174.885 221.426 172.06 225.495 169.271M183.495 196.494C188.818 193.271 194.194 189.912 199.54 186.49M154.495 212.816C159.311 210.363 164.339 207.638 169.495 204.714M112.5 196C110 197 105.599 201.57 105 207M245.495 210.08C240.203 213.961 234.402 217.788 228.266 221.5M208.995 232.253C200.633 236.571 192.016 240.612 183.495 244.257M163.995 251.972C156.418 254.719 149.158 257.044 142.495 258.852M105 215.5C105 219 108.5 222.5 109.5 223M270 186C272.5 182 271.5 177.709 269.247 176" stroke="black" stroke-width="4" stroke-linecap="square" stroke-linejoin="round"/>
<path d="M256.621 129.431L237 110.15L323 85L282.922 155L267.294 140.329L258.291 146.198L256.621 129.431Z" fill="white"/>
<path d="M256.621 129.431L237 110.15L323 85M256.621 129.431L323 85M256.621 129.431L258.291 146.198M323 85L262.466 135.719M323 85L282.922 155L267.294 140.329M262.466 135.719L258.291 146.198M262.466 135.719L267.294 140.329M258.291 146.198L267.294 140.329" stroke="black" stroke-width="2"/>
</svg>
