<svg width="83" height="83" viewBox="0 0 83 83" fill="none" xmlns="http://www.w3.org/2000/svg">
<g filter="url(#filter0_d_256_49)">
<rect x="5" y="1" width="73" height="73" rx="14" stroke="#A3A3A3" stroke-width="2"/>
<path d="M26.4203 54.7273V62H25.0922L21.9281 57.4226H21.8748V62H20.3372V54.7273H21.6866L24.8258 59.3011H24.8897V54.7273H26.4203ZM29.2177 62.103C28.8697 62.103 28.5595 62.0426 28.2873 61.9219C28.015 61.7988 27.7996 61.6177 27.641 61.3786C27.4847 61.1371 27.4066 60.8364 27.4066 60.4766C27.4066 60.1735 27.4622 59.919 27.5735 59.7131C27.6848 59.5071 27.8363 59.3414 28.0281 59.2159C28.2198 59.0904 28.4376 58.9957 28.6815 58.9318C28.9277 58.8679 29.1857 58.8229 29.4556 58.7969C29.7728 58.7637 30.0285 58.733 30.2227 58.7045C30.4168 58.6738 30.5576 58.6288 30.6452 58.5696C30.7328 58.5104 30.7766 58.4228 30.7766 58.3068V58.2855C30.7766 58.0606 30.7056 57.8866 30.5636 57.7635C30.4239 57.6404 30.225 57.5788 29.967 57.5788C29.6947 57.5788 29.4781 57.6392 29.3171 57.7599C29.1561 57.8783 29.0496 58.0275 28.9975 58.2074L27.5984 58.0938C27.6694 57.7623 27.8091 57.4759 28.0174 57.2344C28.2257 56.9905 28.4944 56.8035 28.8235 56.6733C29.1549 56.5407 29.5385 56.4744 29.9741 56.4744C30.2771 56.4744 30.5671 56.5099 30.8441 56.581C31.1235 56.652 31.3709 56.7621 31.5863 56.9112C31.8041 57.0604 31.9757 57.2521 32.1012 57.4865C32.2267 57.7185 32.2894 57.9967 32.2894 58.321V62H30.8548V61.2436H30.8121C30.7246 61.4141 30.6074 61.5644 30.4606 61.6946C30.3138 61.8224 30.1374 61.9231 29.9315 61.9964C29.7255 62.0675 29.4876 62.103 29.2177 62.103ZM29.6509 61.0589C29.8735 61.0589 30.07 61.0152 30.2404 60.9276C30.4109 60.8376 30.5446 60.7169 30.6417 60.5653C30.7388 60.4138 30.7873 60.2422 30.7873 60.0504V59.4716C30.7399 59.5024 30.6748 59.5308 30.592 59.5568C30.5115 59.5805 30.4203 59.603 30.3185 59.6243C30.2167 59.6432 30.1149 59.661 30.0131 59.6776C29.9113 59.6918 29.819 59.7048 29.7362 59.7166C29.5586 59.7427 29.4035 59.7841 29.271 59.8409C29.1384 59.8977 29.0354 59.9747 28.962 60.0717C28.8886 60.1664 28.8519 60.2848 28.8519 60.4268C28.8519 60.6328 28.9265 60.7902 29.0756 60.8991C29.2272 61.0057 29.4189 61.0589 29.6509 61.0589ZM36.3643 56.5455V57.6818H33.0795V56.5455H36.3643ZM33.8253 55.2386H35.3381V60.3239C35.3381 60.4635 35.3594 60.5724 35.402 60.6506C35.4446 60.7263 35.5038 60.7796 35.5795 60.8104C35.6577 60.8411 35.7476 60.8565 35.8494 60.8565C35.9205 60.8565 35.9915 60.8506 36.0625 60.8388C36.1335 60.8246 36.188 60.8139 36.2259 60.8068L36.4638 61.9325C36.388 61.9562 36.2815 61.9834 36.1442 62.0142C36.0069 62.0473 35.84 62.0675 35.6435 62.0746C35.2789 62.0888 34.9593 62.0402 34.6847 61.929C34.4124 61.8177 34.2005 61.6449 34.049 61.4105C33.8975 61.1761 33.8229 60.8802 33.8253 60.5227V55.2386ZM40.8477 59.6776V56.5455H42.3604V62H40.908V61.0092H40.8512C40.7281 61.3288 40.5233 61.5857 40.2369 61.7798C39.9528 61.974 39.6059 62.071 39.1964 62.071C38.8318 62.071 38.511 61.9882 38.234 61.8224C37.957 61.6567 37.7404 61.4212 37.5842 61.1158C37.4303 60.8104 37.3522 60.4446 37.3498 60.0185V56.5455H38.8626V59.7486C38.8649 60.0705 38.9513 60.325 39.1218 60.5121C39.2923 60.6991 39.5207 60.7926 39.8072 60.7926C39.9895 60.7926 40.1599 60.7512 40.3185 60.6683C40.4772 60.5831 40.605 60.4576 40.7021 60.2919C40.8015 60.1262 40.85 59.9214 40.8477 59.6776ZM43.5705 62V56.5455H45.0371V57.4972H45.0939C45.1934 57.1586 45.3603 56.9029 45.5946 56.7301C45.829 56.5549 46.0989 56.4673 46.4043 56.4673C46.4801 56.4673 46.5617 56.4721 46.6493 56.4815C46.7369 56.491 46.8139 56.504 46.8801 56.5206V57.8629C46.8091 57.8416 46.7109 57.8227 46.5854 57.8061C46.4599 57.7895 46.3451 57.7812 46.2409 57.7812C46.0184 57.7812 45.8195 57.8298 45.6444 57.9268C45.4715 58.0215 45.3342 58.1541 45.2324 58.3246C45.133 58.495 45.0833 58.6915 45.0833 58.9141V62H43.5705ZM49.8942 62.1065C49.3331 62.1065 48.8501 61.9929 48.4453 61.7656C48.0429 61.536 47.7327 61.2116 47.5149 60.7926C47.2971 60.3712 47.1882 59.8729 47.1882 59.2976C47.1882 58.7365 47.2971 58.2441 47.5149 57.8203C47.7327 57.3965 48.0393 57.0663 48.4347 56.8295C48.8324 56.5928 49.2988 56.4744 49.8338 56.4744C50.1937 56.4744 50.5286 56.5324 50.8388 56.6484C51.1513 56.7621 51.4235 56.9337 51.6555 57.1634C51.8899 57.393 52.0722 57.6818 52.2024 58.0298C52.3326 58.3755 52.3977 58.7803 52.3977 59.2443V59.6598H47.7919V58.7223H50.9737C50.9737 58.5045 50.9264 58.3116 50.8317 58.1435C50.737 57.9754 50.6056 57.844 50.4375 57.7493C50.2718 57.6522 50.0788 57.6037 49.8587 57.6037C49.629 57.6037 49.4254 57.657 49.2479 57.7635C49.0727 57.8677 48.9354 58.0085 48.8359 58.1861C48.7365 58.3613 48.6856 58.5566 48.6832 58.772V59.6634C48.6832 59.9332 48.733 60.1664 48.8324 60.3629C48.9342 60.5594 49.0774 60.7109 49.2621 60.8175C49.4467 60.924 49.6657 60.9773 49.919 60.9773C50.0871 60.9773 50.241 60.9536 50.3807 60.9062C50.5204 60.8589 50.6399 60.7879 50.7393 60.6932C50.8388 60.5985 50.9145 60.4825 50.9666 60.3452L52.3658 60.4375C52.2947 60.7737 52.1491 61.0672 51.929 61.3182C51.7112 61.5668 51.4295 61.7609 51.0838 61.9006C50.7405 62.0379 50.344 62.1065 49.8942 62.1065ZM53.3565 62V61.098L56.027 57.7919V57.7528H53.4489V56.5455H57.8487V57.5291L55.3416 60.7536V60.7926H57.9411V62H53.3565ZM60.6532 62.103C60.3052 62.103 59.9951 62.0426 59.7228 61.9219C59.4506 61.7988 59.2351 61.6177 59.0765 61.3786C58.9203 61.1371 58.8422 60.8364 58.8422 60.4766C58.8422 60.1735 58.8978 59.919 59.0091 59.7131C59.1203 59.5071 59.2718 59.3414 59.4636 59.2159C59.6554 59.0904 59.8732 58.9957 60.117 58.9318C60.3632 58.8679 60.6213 58.8229 60.8912 58.7969C61.2084 58.7637 61.4641 58.733 61.6582 58.7045C61.8523 58.6738 61.9932 58.6288 62.0808 58.5696C62.1684 58.5104 62.2122 58.4228 62.2122 58.3068V58.2855C62.2122 58.0606 62.1412 57.8866 61.9991 57.7635C61.8594 57.6404 61.6606 57.5788 61.4025 57.5788C61.1303 57.5788 60.9136 57.6392 60.7527 57.7599C60.5917 57.8783 60.4851 58.0275 60.4331 58.2074L59.0339 58.0938C59.1049 57.7623 59.2446 57.4759 59.4529 57.2344C59.6613 56.9905 59.93 56.8035 60.2591 56.6733C60.5905 56.5407 60.974 56.4744 61.4096 56.4744C61.7127 56.4744 62.0027 56.5099 62.2797 56.581C62.559 56.652 62.8064 56.7621 63.0218 56.9112C63.2396 57.0604 63.4113 57.2521 63.5368 57.4865C63.6622 57.7185 63.725 57.9967 63.725 58.321V62H62.2903V61.2436H62.2477C62.1601 61.4141 62.0429 61.5644 61.8961 61.6946C61.7493 61.8224 61.573 61.9231 61.367 61.9964C61.161 62.0675 60.9231 62.103 60.6532 62.103ZM61.0865 61.0589C61.309 61.0589 61.5055 61.0152 61.676 60.9276C61.8464 60.8376 61.9802 60.7169 62.0772 60.5653C62.1743 60.4138 62.2228 60.2422 62.2228 60.0504V59.4716C62.1755 59.5024 62.1104 59.5308 62.0275 59.5568C61.947 59.5805 61.8559 59.603 61.7541 59.6243C61.6523 59.6432 61.5505 59.661 61.4487 59.6776C61.3469 59.6918 61.2546 59.7048 61.1717 59.7166C60.9941 59.7427 60.8391 59.7841 60.7065 59.8409C60.5739 59.8977 60.4709 59.9747 60.3975 60.0717C60.3242 60.1664 60.2875 60.2848 60.2875 60.4268C60.2875 60.6328 60.362 60.7902 60.5112 60.8991C60.6627 61.0057 60.8545 61.0589 61.0865 61.0589Z" fill="#A3A3A3"/>
<path d="M40.5833 41.3333C38.0957 41.3408 35.6962 40.4132 33.8606 38.7343C32.0249 37.0555 30.8873 34.748 30.6734 32.2696C30.4594 29.7913 31.1847 27.323 32.7055 25.3544C34.2262 23.3857 36.4313 22.0606 38.8833 21.6416C46.9583 20.0833 49.0833 19.3466 51.9167 15.8333C53.3333 18.6666 54.75 21.755 54.75 27.1666C54.75 34.9583 47.9783 41.3333 40.5833 41.3333Z" stroke="#A3A3A3" stroke-width="2.33333" stroke-linecap="round" stroke-linejoin="round"/>
<path d="M27.8334 42.75C27.8334 38.5 30.4542 35.1567 35.03 34.25C38.4584 33.57 42 31.4167 43.4167 30" stroke="#A3A3A3" stroke-width="2.33333" stroke-linecap="round" stroke-linejoin="round"/>
<path d="M26.4203 54.7273V62H25.0922L21.9281 57.4226H21.8748V62H20.3372V54.7273H21.6866L24.8258 59.3011H24.8897V54.7273H26.4203ZM29.2177 62.103C28.8697 62.103 28.5595 62.0426 28.2873 61.9219C28.015 61.7988 27.7996 61.6177 27.641 61.3786C27.4847 61.1371 27.4066 60.8364 27.4066 60.4766C27.4066 60.1735 27.4622 59.919 27.5735 59.7131C27.6848 59.5071 27.8363 59.3414 28.0281 59.2159C28.2198 59.0904 28.4376 58.9957 28.6815 58.9318C28.9277 58.8679 29.1857 58.8229 29.4556 58.7969C29.7728 58.7637 30.0285 58.733 30.2227 58.7045C30.4168 58.6738 30.5576 58.6288 30.6452 58.5696C30.7328 58.5104 30.7766 58.4228 30.7766 58.3068V58.2855C30.7766 58.0606 30.7056 57.8866 30.5636 57.7635C30.4239 57.6404 30.225 57.5788 29.967 57.5788C29.6947 57.5788 29.4781 57.6392 29.3171 57.7599C29.1561 57.8783 29.0496 58.0275 28.9975 58.2074L27.5984 58.0938C27.6694 57.7623 27.8091 57.4759 28.0174 57.2344C28.2257 56.9905 28.4944 56.8035 28.8235 56.6733C29.1549 56.5407 29.5385 56.4744 29.9741 56.4744C30.2771 56.4744 30.5671 56.5099 30.8441 56.581C31.1235 56.652 31.3709 56.7621 31.5863 56.9112C31.8041 57.0604 31.9757 57.2521 32.1012 57.4865C32.2267 57.7185 32.2894 57.9967 32.2894 58.321V62H30.8548V61.2436H30.8121C30.7246 61.4141 30.6074 61.5644 30.4606 61.6946C30.3138 61.8224 30.1374 61.9231 29.9315 61.9964C29.7255 62.0675 29.4876 62.103 29.2177 62.103ZM29.6509 61.0589C29.8735 61.0589 30.07 61.0152 30.2404 60.9276C30.4109 60.8376 30.5446 60.7169 30.6417 60.5653C30.7388 60.4138 30.7873 60.2422 30.7873 60.0504V59.4716C30.7399 59.5024 30.6748 59.5308 30.592 59.5568C30.5115 59.5805 30.4203 59.603 30.3185 59.6243C30.2167 59.6432 30.1149 59.661 30.0131 59.6776C29.9113 59.6918 29.819 59.7048 29.7362 59.7166C29.5586 59.7427 29.4035 59.7841 29.271 59.8409C29.1384 59.8977 29.0354 59.9747 28.962 60.0717C28.8886 60.1664 28.8519 60.2848 28.8519 60.4268C28.8519 60.6328 28.9265 60.7902 29.0756 60.8991C29.2272 61.0057 29.4189 61.0589 29.6509 61.0589ZM36.3643 56.5455V57.6818H33.0795V56.5455H36.3643ZM33.8253 55.2386H35.3381V60.3239C35.3381 60.4635 35.3594 60.5724 35.402 60.6506C35.4446 60.7263 35.5038 60.7796 35.5795 60.8104C35.6577 60.8411 35.7476 60.8565 35.8494 60.8565C35.9205 60.8565 35.9915 60.8506 36.0625 60.8388C36.1335 60.8246 36.188 60.8139 36.2259 60.8068L36.4638 61.9325C36.388 61.9562 36.2815 61.9834 36.1442 62.0142C36.0069 62.0473 35.84 62.0675 35.6435 62.0746C35.2789 62.0888 34.9593 62.0402 34.6847 61.929C34.4124 61.8177 34.2005 61.6449 34.049 61.4105C33.8975 61.1761 33.8229 60.8802 33.8253 60.5227V55.2386ZM40.8477 59.6776V56.5455H42.3604V62H40.908V61.0092H40.8512C40.7281 61.3288 40.5233 61.5857 40.2369 61.7798C39.9528 61.974 39.6059 62.071 39.1964 62.071C38.8318 62.071 38.511 61.9882 38.234 61.8224C37.957 61.6567 37.7404 61.4212 37.5842 61.1158C37.4303 60.8104 37.3522 60.4446 37.3498 60.0185V56.5455H38.8626V59.7486C38.8649 60.0705 38.9513 60.325 39.1218 60.5121C39.2923 60.6991 39.5207 60.7926 39.8072 60.7926C39.9895 60.7926 40.1599 60.7512 40.3185 60.6683C40.4772 60.5831 40.605 60.4576 40.7021 60.2919C40.8015 60.1262 40.85 59.9214 40.8477 59.6776ZM43.5705 62V56.5455H45.0371V57.4972H45.0939C45.1934 57.1586 45.3603 56.9029 45.5946 56.7301C45.829 56.5549 46.0989 56.4673 46.4043 56.4673C46.4801 56.4673 46.5617 56.4721 46.6493 56.4815C46.7369 56.491 46.8139 56.504 46.8801 56.5206V57.8629C46.8091 57.8416 46.7109 57.8227 46.5854 57.8061C46.4599 57.7895 46.3451 57.7812 46.2409 57.7812C46.0184 57.7812 45.8195 57.8298 45.6444 57.9268C45.4715 58.0215 45.3342 58.1541 45.2324 58.3246C45.133 58.495 45.0833 58.6915 45.0833 58.9141V62H43.5705ZM49.8942 62.1065C49.3331 62.1065 48.8501 61.9929 48.4453 61.7656C48.0429 61.536 47.7327 61.2116 47.5149 60.7926C47.2971 60.3712 47.1882 59.8729 47.1882 59.2976C47.1882 58.7365 47.2971 58.2441 47.5149 57.8203C47.7327 57.3965 48.0393 57.0663 48.4347 56.8295C48.8324 56.5928 49.2988 56.4744 49.8338 56.4744C50.1937 56.4744 50.5286 56.5324 50.8388 56.6484C51.1513 56.7621 51.4235 56.9337 51.6555 57.1634C51.8899 57.393 52.0722 57.6818 52.2024 58.0298C52.3326 58.3755 52.3977 58.7803 52.3977 59.2443V59.6598H47.7919V58.7223H50.9737C50.9737 58.5045 50.9264 58.3116 50.8317 58.1435C50.737 57.9754 50.6056 57.844 50.4375 57.7493C50.2718 57.6522 50.0788 57.6037 49.8587 57.6037C49.629 57.6037 49.4254 57.657 49.2479 57.7635C49.0727 57.8677 48.9354 58.0085 48.8359 58.1861C48.7365 58.3613 48.6856 58.5566 48.6832 58.772V59.6634C48.6832 59.9332 48.733 60.1664 48.8324 60.3629C48.9342 60.5594 49.0774 60.7109 49.2621 60.8175C49.4467 60.924 49.6657 60.9773 49.919 60.9773C50.0871 60.9773 50.241 60.9536 50.3807 60.9062C50.5204 60.8589 50.6399 60.7879 50.7393 60.6932C50.8388 60.5985 50.9145 60.4825 50.9666 60.3452L52.3658 60.4375C52.2947 60.7737 52.1491 61.0672 51.929 61.3182C51.7112 61.5668 51.4295 61.7609 51.0838 61.9006C50.7405 62.0379 50.344 62.1065 49.8942 62.1065ZM53.3565 62V61.098L56.027 57.7919V57.7528H53.4489V56.5455H57.8487V57.5291L55.3416 60.7536V60.7926H57.9411V62H53.3565ZM60.6532 62.103C60.3052 62.103 59.9951 62.0426 59.7228 61.9219C59.4506 61.7988 59.2351 61.6177 59.0765 61.3786C58.9203 61.1371 58.8422 60.8364 58.8422 60.4766C58.8422 60.1735 58.8978 59.919 59.0091 59.7131C59.1203 59.5071 59.2718 59.3414 59.4636 59.2159C59.6554 59.0904 59.8732 58.9957 60.117 58.9318C60.3632 58.8679 60.6213 58.8229 60.8912 58.7969C61.2084 58.7637 61.4641 58.733 61.6582 58.7045C61.8523 58.6738 61.9932 58.6288 62.0808 58.5696C62.1684 58.5104 62.2122 58.4228 62.2122 58.3068V58.2855C62.2122 58.0606 62.1412 57.8866 61.9991 57.7635C61.8594 57.6404 61.6606 57.5788 61.4025 57.5788C61.1303 57.5788 60.9136 57.6392 60.7527 57.7599C60.5917 57.8783 60.4851 58.0275 60.4331 58.2074L59.0339 58.0938C59.1049 57.7623 59.2446 57.4759 59.4529 57.2344C59.6613 56.9905 59.93 56.8035 60.2591 56.6733C60.5905 56.5407 60.974 56.4744 61.4096 56.4744C61.7127 56.4744 62.0027 56.5099 62.2797 56.581C62.559 56.652 62.8064 56.7621 63.0218 56.9112C63.2396 57.0604 63.4113 57.2521 63.5368 57.4865C63.6622 57.7185 63.725 57.9967 63.725 58.321V62H62.2903V61.2436H62.2477C62.1601 61.4141 62.0429 61.5644 61.8961 61.6946C61.7493 61.8224 61.573 61.9231 61.367 61.9964C61.161 62.0675 60.9231 62.103 60.6532 62.103ZM61.0865 61.0589C61.309 61.0589 61.5055 61.0152 61.676 60.9276C61.8464 60.8376 61.9802 60.7169 62.0772 60.5653C62.1743 60.4138 62.2228 60.2422 62.2228 60.0504V59.4716C62.1755 59.5024 62.1104 59.5308 62.0275 59.5568C61.947 59.5805 61.8559 59.603 61.7541 59.6243C61.6523 59.6432 61.5505 59.661 61.4487 59.6776C61.3469 59.6918 61.2546 59.7048 61.1717 59.7166C60.9941 59.7427 60.8391 59.7841 60.7065 59.8409C60.5739 59.8977 60.4709 59.9747 60.3975 60.0717C60.3242 60.1664 60.2875 60.2848 60.2875 60.4268C60.2875 60.6328 60.362 60.7902 60.5112 60.8991C60.6627 61.0057 60.8545 61.0589 61.0865 61.0589Z" fill="#A3A3A3"/>
</g>
<defs>
<filter id="filter0_d_256_49" x="0" y="0" width="83" height="83" filterUnits="userSpaceOnUse" color-interpolation-filters="sRGB">
<feFlood flood-opacity="0" result="BackgroundImageFix"/>
<feColorMatrix in="SourceAlpha" type="matrix" values="0 0 0 0 0 0 0 0 0 0 0 0 0 0 0 0 0 0 127 0" result="hardAlpha"/>
<feOffset dy="4"/>
<feGaussianBlur stdDeviation="2"/>
<feComposite in2="hardAlpha" operator="out"/>
<feColorMatrix type="matrix" values="0 0 0 0 0 0 0 0 0 0 0 0 0 0 0 0 0 0 0.25 0"/>
<feBlend mode="normal" in2="BackgroundImageFix" result="effect1_dropShadow_256_49"/>
<feBlend mode="normal" in="SourceGraphic" in2="effect1_dropShadow_256_49" result="shape"/>
</filter>
</defs>
</svg>
