<svg width="75" height="75" viewBox="0 0 75 75" fill="none" xmlns="http://www.w3.org/2000/svg">
<rect width="75" height="75" rx="15" fill="#D4E0AE"/>
<path d="M36.5833 41.3333C34.0957 41.3408 31.6962 40.4132 29.8606 38.7343C28.0249 37.0555 26.8873 34.748 26.6734 32.2696C26.4594 29.7913 27.1847 27.323 28.7055 25.3544C30.2262 23.3857 32.4313 22.0606 34.8833 21.6416C42.9583 20.0833 45.0833 19.3466 47.9167 15.8333C49.3333 18.6666 50.75 21.755 50.75 27.1666C50.75 34.9583 43.9783 41.3333 36.5833 41.3333Z" stroke="#191A19" stroke-width="2.33333" stroke-linecap="round" stroke-linejoin="round"/>
<path d="M23.8334 42.75C23.8334 38.5 26.4542 35.1567 31.03 34.25C34.4584 33.57 38 31.4167 39.4167 30" stroke="#191A19" stroke-width="2.33333" stroke-linecap="round" stroke-linejoin="round"/>
<path d="M22.4203 54.7273V62H21.0922L17.9281 57.4226H17.8748V62H16.3372V54.7273H17.6866L20.8258 59.3011H20.8897V54.7273H22.4203ZM25.2177 62.103C24.8697 62.103 24.5595 62.0426 24.2873 61.9219C24.015 61.7988 23.7996 61.6177 23.641 61.3786C23.4847 61.1371 23.4066 60.8364 23.4066 60.4766C23.4066 60.1735 23.4622 59.919 23.5735 59.7131C23.6848 59.5071 23.8363 59.3414 24.0281 59.2159C24.2198 59.0904 24.4376 58.9957 24.6815 58.9318C24.9277 58.8679 25.1857 58.8229 25.4556 58.7969C25.7728 58.7637 26.0285 58.733 26.2227 58.7045C26.4168 58.6738 26.5576 58.6288 26.6452 58.5696C26.7328 58.5104 26.7766 58.4228 26.7766 58.3068V58.2855C26.7766 58.0606 26.7056 57.8866 26.5636 57.7635C26.4239 57.6404 26.225 57.5788 25.967 57.5788C25.6947 57.5788 25.4781 57.6392 25.3171 57.7599C25.1561 57.8783 25.0496 58.0275 24.9975 58.2074L23.5984 58.0938C23.6694 57.7623 23.8091 57.4759 24.0174 57.2344C24.2257 56.9905 24.4944 56.8035 24.8235 56.6733C25.1549 56.5407 25.5385 56.4744 25.9741 56.4744C26.2771 56.4744 26.5671 56.5099 26.8441 56.581C27.1235 56.652 27.3709 56.7621 27.5863 56.9112C27.8041 57.0604 27.9757 57.2521 28.1012 57.4865C28.2267 57.7185 28.2894 57.9967 28.2894 58.321V62H26.8548V61.2436H26.8121C26.7246 61.4141 26.6074 61.5644 26.4606 61.6946C26.3138 61.8224 26.1374 61.9231 25.9315 61.9964C25.7255 62.0675 25.4876 62.103 25.2177 62.103ZM25.6509 61.0589C25.8735 61.0589 26.07 61.0152 26.2404 60.9276C26.4109 60.8376 26.5446 60.7169 26.6417 60.5653C26.7388 60.4138 26.7873 60.2422 26.7873 60.0504V59.4716C26.7399 59.5024 26.6748 59.5308 26.592 59.5568C26.5115 59.5805 26.4203 59.603 26.3185 59.6243C26.2167 59.6432 26.1149 59.661 26.0131 59.6776C25.9113 59.6918 25.819 59.7048 25.7362 59.7166C25.5586 59.7427 25.4035 59.7841 25.271 59.8409C25.1384 59.8977 25.0354 59.9747 24.962 60.0717C24.8886 60.1664 24.8519 60.2848 24.8519 60.4268C24.8519 60.6328 24.9265 60.7902 25.0756 60.8991C25.2272 61.0057 25.4189 61.0589 25.6509 61.0589ZM32.3643 56.5455V57.6818H29.0795V56.5455H32.3643ZM29.8253 55.2386H31.3381V60.3239C31.3381 60.4635 31.3594 60.5724 31.402 60.6506C31.4446 60.7263 31.5038 60.7796 31.5795 60.8104C31.6577 60.8411 31.7476 60.8565 31.8494 60.8565C31.9205 60.8565 31.9915 60.8506 32.0625 60.8388C32.1335 60.8246 32.188 60.8139 32.2259 60.8068L32.4638 61.9325C32.388 61.9562 32.2815 61.9834 32.1442 62.0142C32.0069 62.0473 31.84 62.0675 31.6435 62.0746C31.2789 62.0888 30.9593 62.0402 30.6847 61.929C30.4124 61.8177 30.2005 61.6449 30.049 61.4105C29.8975 61.1761 29.8229 60.8802 29.8253 60.5227V55.2386ZM36.8477 59.6776V56.5455H38.3604V62H36.908V61.0092H36.8512C36.7281 61.3288 36.5233 61.5857 36.2369 61.7798C35.9528 61.974 35.6059 62.071 35.1964 62.071C34.8318 62.071 34.511 61.9882 34.234 61.8224C33.957 61.6567 33.7404 61.4212 33.5842 61.1158C33.4303 60.8104 33.3522 60.4446 33.3498 60.0185V56.5455H34.8626V59.7486C34.8649 60.0705 34.9513 60.325 35.1218 60.5121C35.2923 60.6991 35.5207 60.7926 35.8072 60.7926C35.9895 60.7926 36.1599 60.7512 36.3185 60.6683C36.4772 60.5831 36.605 60.4576 36.7021 60.2919C36.8015 60.1262 36.85 59.9214 36.8477 59.6776ZM39.5705 62V56.5455H41.0371V57.4972H41.0939C41.1934 57.1586 41.3603 56.9029 41.5946 56.7301C41.829 56.5549 42.0989 56.4673 42.4043 56.4673C42.4801 56.4673 42.5617 56.4721 42.6493 56.4815C42.7369 56.491 42.8139 56.504 42.8801 56.5206V57.8629C42.8091 57.8416 42.7109 57.8227 42.5854 57.8061C42.4599 57.7895 42.3451 57.7812 42.2409 57.7812C42.0184 57.7812 41.8195 57.8298 41.6444 57.9268C41.4715 58.0215 41.3342 58.1541 41.2324 58.3246C41.133 58.495 41.0833 58.6915 41.0833 58.9141V62H39.5705ZM45.8942 62.1065C45.3331 62.1065 44.8501 61.9929 44.4453 61.7656C44.0429 61.536 43.7327 61.2116 43.5149 60.7926C43.2971 60.3712 43.1882 59.8729 43.1882 59.2976C43.1882 58.7365 43.2971 58.2441 43.5149 57.8203C43.7327 57.3965 44.0393 57.0663 44.4347 56.8295C44.8324 56.5928 45.2988 56.4744 45.8338 56.4744C46.1937 56.4744 46.5286 56.5324 46.8388 56.6484C47.1513 56.7621 47.4235 56.9337 47.6555 57.1634C47.8899 57.393 48.0722 57.6818 48.2024 58.0298C48.3326 58.3755 48.3977 58.7803 48.3977 59.2443V59.6598H43.7919V58.7223H46.9737C46.9737 58.5045 46.9264 58.3116 46.8317 58.1435C46.737 57.9754 46.6056 57.844 46.4375 57.7493C46.2718 57.6522 46.0788 57.6037 45.8587 57.6037C45.629 57.6037 45.4254 57.657 45.2479 57.7635C45.0727 57.8677 44.9354 58.0085 44.8359 58.1861C44.7365 58.3613 44.6856 58.5566 44.6832 58.772V59.6634C44.6832 59.9332 44.733 60.1664 44.8324 60.3629C44.9342 60.5594 45.0774 60.7109 45.2621 60.8175C45.4467 60.924 45.6657 60.9773 45.919 60.9773C46.0871 60.9773 46.241 60.9536 46.3807 60.9062C46.5204 60.8589 46.6399 60.7879 46.7393 60.6932C46.8388 60.5985 46.9145 60.4825 46.9666 60.3452L48.3658 60.4375C48.2947 60.7737 48.1491 61.0672 47.929 61.3182C47.7112 61.5668 47.4295 61.7609 47.0838 61.9006C46.7405 62.0379 46.344 62.1065 45.8942 62.1065ZM49.3565 62V61.098L52.027 57.7919V57.7528H49.4489V56.5455H53.8487V57.5291L51.3416 60.7536V60.7926H53.9411V62H49.3565ZM56.6532 62.103C56.3052 62.103 55.9951 62.0426 55.7228 61.9219C55.4506 61.7988 55.2351 61.6177 55.0765 61.3786C54.9203 61.1371 54.8422 60.8364 54.8422 60.4766C54.8422 60.1735 54.8978 59.919 55.0091 59.7131C55.1203 59.5071 55.2718 59.3414 55.4636 59.2159C55.6554 59.0904 55.8732 58.9957 56.117 58.9318C56.3632 58.8679 56.6213 58.8229 56.8912 58.7969C57.2084 58.7637 57.4641 58.733 57.6582 58.7045C57.8523 58.6738 57.9932 58.6288 58.0808 58.5696C58.1684 58.5104 58.2122 58.4228 58.2122 58.3068V58.2855C58.2122 58.0606 58.1412 57.8866 57.9991 57.7635C57.8594 57.6404 57.6606 57.5788 57.4025 57.5788C57.1303 57.5788 56.9136 57.6392 56.7527 57.7599C56.5917 57.8783 56.4851 58.0275 56.4331 58.2074L55.0339 58.0938C55.1049 57.7623 55.2446 57.4759 55.4529 57.2344C55.6613 56.9905 55.93 56.8035 56.2591 56.6733C56.5905 56.5407 56.974 56.4744 57.4096 56.4744C57.7127 56.4744 58.0027 56.5099 58.2797 56.581C58.559 56.652 58.8064 56.7621 59.0218 56.9112C59.2396 57.0604 59.4113 57.2521 59.5368 57.4865C59.6622 57.7185 59.725 57.9967 59.725 58.321V62H58.2903V61.2436H58.2477C58.1601 61.4141 58.0429 61.5644 57.8961 61.6946C57.7493 61.8224 57.573 61.9231 57.367 61.9964C57.161 62.0675 56.9231 62.103 56.6532 62.103ZM57.0865 61.0589C57.309 61.0589 57.5055 61.0152 57.676 60.9276C57.8464 60.8376 57.9802 60.7169 58.0772 60.5653C58.1743 60.4138 58.2228 60.2422 58.2228 60.0504V59.4716C58.1755 59.5024 58.1104 59.5308 58.0275 59.5568C57.947 59.5805 57.8559 59.603 57.7541 59.6243C57.6523 59.6432 57.5505 59.661 57.4487 59.6776C57.3469 59.6918 57.2546 59.7048 57.1717 59.7166C56.9941 59.7427 56.8391 59.7841 56.7065 59.8409C56.5739 59.8977 56.4709 59.9747 56.3975 60.0717C56.3242 60.1664 56.2875 60.2848 56.2875 60.4268C56.2875 60.6328 56.362 60.7902 56.5112 60.8991C56.6627 61.0057 56.8545 61.0589 57.0865 61.0589Z" fill="#191A19"/>
</svg>
