<svg width="45" height="45" viewBox="0 0 45 45" fill="none" xmlns="http://www.w3.org/2000/svg">
<rect width="45" height="45" rx="22.5" fill="#FEFAE0"/>
<path d="M34.2028 28.0049V31.474C34.2041 31.796 34.1376 32.1148 34.0074 32.4098C33.8772 32.7049 33.6863 32.9698 33.4469 33.1875C33.2075 33.4052 32.9248 33.571 32.617 33.6741C32.3092 33.7773 31.9831 33.8156 31.6595 33.7866C28.0694 33.4 24.621 32.1841 21.5911 30.2367C18.7723 28.4613 16.3824 26.0925 14.5911 23.2986C12.6194 20.282 11.3924 16.8474 11.0095 13.2731C10.9803 12.9534 11.0187 12.6311 11.1221 12.3268C11.2254 12.0225 11.3916 11.7429 11.61 11.5058C11.8284 11.2687 12.0942 11.0792 12.3906 10.9495C12.6869 10.8198 13.0072 10.7526 13.3311 10.7523H16.8311C17.3973 10.7468 17.9462 10.9455 18.3755 11.3114C18.8048 11.6774 19.0852 12.1855 19.1645 12.7412C19.3122 13.8514 19.5862 14.9414 19.9811 15.9905C20.1381 16.4044 20.1721 16.8542 20.079 17.2867C19.986 17.7191 19.7698 18.116 19.4561 18.4304L17.9745 19.899C19.6353 22.7939 22.0537 25.1909 24.9745 26.837L26.4561 25.3685C26.7733 25.0576 27.1738 24.8433 27.6101 24.7511C28.0464 24.6589 28.5002 24.6925 28.9178 24.8481C29.9763 25.2396 31.0761 25.5111 32.1961 25.6576C32.7629 25.7368 33.2804 26.0197 33.6504 26.4525C34.0204 26.8853 34.217 27.4378 34.2028 28.0049Z" stroke="#262626" stroke-width="2.04167" stroke-linecap="round" stroke-linejoin="round"/>
</svg>
