<svg width="75" height="75" viewBox="0 0 75 75" fill="none" xmlns="http://www.w3.org/2000/svg">
<rect width="75" height="75" rx="15" fill="#D4E0AE"/>
<path d="M46.5 22.9167L52.1667 25.75V41.3334C52.1667 42.0848 51.8682 42.8055 51.3368 43.3368C50.8055 43.8682 50.0848 44.1667 49.3334 44.1667H26.6667C25.9153 44.1667 25.1946 43.8682 24.6632 43.3368C24.1319 42.8055 23.8334 42.0848 23.8334 41.3334V25.75L29.5 22.9167" stroke="#191A19" stroke-width="2.33333" stroke-linecap="round" stroke-linejoin="round"/>
<path d="M40.8333 44.1667V38.5C40.8333 37.7486 40.5348 37.0279 40.0034 36.4966C39.4721 35.9652 38.7514 35.6667 38 35.6667C37.2485 35.6667 36.5278 35.9652 35.9965 36.4966C35.4651 37.0279 35.1666 37.7486 35.1666 38.5V44.1667" stroke="#191A19" stroke-width="2.33333" stroke-linecap="round" stroke-linejoin="round"/>
<path d="M46.5 44.1666V20.0833L38 15.8333L29.5 20.0833V44.1666" stroke="#191A19" stroke-width="2.33333" stroke-linecap="round" stroke-linejoin="round"/>
<path d="M38 22.9167V30" stroke="#191A19" stroke-width="2.33333" stroke-linecap="round" stroke-linejoin="round"/>
<path d="M35.1666 25.75H40.8333" stroke="#191A19" stroke-width="2.33333" stroke-linecap="round" stroke-linejoin="round"/>
<path d="M19.1887 62V54.7273H22.0581C22.6073 54.7273 23.0761 54.8255 23.4643 55.022C23.8549 55.2161 24.152 55.492 24.3556 55.8494C24.5616 56.2045 24.6646 56.6224 24.6646 57.103C24.6646 57.5859 24.5604 58.0014 24.3521 58.3494C24.1438 58.6951 23.8419 58.9602 23.4466 59.1449C23.0536 59.3295 22.5777 59.4219 22.019 59.4219H20.0978V58.1861H21.7704C22.064 58.1861 22.3078 58.1458 22.502 58.0653C22.6961 57.9848 22.8405 57.8641 22.9352 57.7031C23.0323 57.5421 23.0808 57.3421 23.0808 57.103C23.0808 56.8615 23.0323 56.6579 22.9352 56.4922C22.8405 56.3265 22.6949 56.201 22.4984 56.1158C22.3043 56.0282 22.0592 55.9844 21.7633 55.9844H20.7264V62H19.1887ZM23.1163 58.6903L24.9238 62H23.2264L21.4579 58.6903H23.1163ZM28.1207 62.1065C27.5597 62.1065 27.0767 61.9929 26.6719 61.7656C26.2694 61.536 25.9593 61.2116 25.7415 60.7926C25.5237 60.3712 25.4148 59.8729 25.4148 59.2976C25.4148 58.7365 25.5237 58.2441 25.7415 57.8203C25.9593 57.3965 26.2659 57.0663 26.6612 56.8295C27.0589 56.5928 27.5253 56.4744 28.0604 56.4744C28.4202 56.4744 28.7552 56.5324 29.0653 56.6484C29.3778 56.7621 29.6501 56.9337 29.8821 57.1634C30.1165 57.393 30.2988 57.6818 30.429 58.0298C30.5592 58.3755 30.6243 58.7803 30.6243 59.2443V59.6598H26.0185V58.7223H29.2003C29.2003 58.5045 29.1529 58.3116 29.0582 58.1435C28.9635 57.9754 28.8321 57.844 28.6641 57.7493C28.4983 57.6522 28.3054 57.6037 28.0852 57.6037C27.8556 57.6037 27.652 57.657 27.4744 57.7635C27.2992 57.8677 27.1619 58.0085 27.0625 58.1861C26.9631 58.3613 26.9122 58.5566 26.9098 58.772V59.6634C26.9098 59.9332 26.9595 60.1664 27.0589 60.3629C27.1607 60.5594 27.304 60.7109 27.4886 60.8175C27.6733 60.924 27.8923 60.9773 28.1456 60.9773C28.3137 60.9773 28.4676 60.9536 28.6072 60.9062C28.7469 60.8589 28.8665 60.7879 28.9659 60.6932C29.0653 60.5985 29.1411 60.4825 29.1932 60.3452L30.5923 60.4375C30.5213 60.7737 30.3757 61.0672 30.1555 61.3182C29.9377 61.5668 29.656 61.7609 29.3104 61.9006C28.9671 62.0379 28.5705 62.1065 28.1207 62.1065ZM33.1243 54.7273V62H31.6115V54.7273H33.1243ZM34.3361 62V56.5455H35.8489V62H34.3361ZM35.0961 55.8423C34.8712 55.8423 34.6782 55.7678 34.5172 55.6186C34.3586 55.4671 34.2793 55.286 34.2793 55.0753C34.2793 54.867 34.3586 54.6882 34.5172 54.5391C34.6782 54.3875 34.8712 54.3118 35.0961 54.3118C35.321 54.3118 35.5127 54.3875 35.6713 54.5391C35.8323 54.6882 35.9128 54.867 35.9128 55.0753C35.9128 55.286 35.8323 55.4671 35.6713 55.6186C35.5127 55.7678 35.321 55.8423 35.0961 55.8423ZM39.5181 64.1591C39.0281 64.1591 38.6078 64.0916 38.2575 63.9567C37.9094 63.8241 37.6325 63.643 37.4265 63.4134C37.2205 63.1837 37.0868 62.9257 37.0252 62.6392L38.4244 62.451C38.467 62.5599 38.5344 62.6617 38.6268 62.7564C38.7191 62.8511 38.841 62.9268 38.9925 62.9837C39.1464 63.0429 39.3335 63.0724 39.5536 63.0724C39.8827 63.0724 40.1538 62.992 40.3668 62.831C40.5823 62.6723 40.69 62.406 40.69 62.032V61.0341H40.6261C40.5598 61.1856 40.4603 61.3288 40.3278 61.4638C40.1952 61.5987 40.0247 61.7088 39.8164 61.794C39.6081 61.8793 39.3595 61.9219 39.0707 61.9219C38.6611 61.9219 38.2882 61.8272 37.9521 61.6378C37.6183 61.446 37.3519 61.1536 37.1531 60.7607C36.9566 60.3653 36.8583 59.8658 36.8583 59.2621C36.8583 58.6442 36.9589 58.1281 37.1602 57.7138C37.3614 57.2995 37.6289 56.9893 37.9627 56.7834C38.2989 56.5774 38.667 56.4744 39.0671 56.4744C39.3725 56.4744 39.6282 56.5265 39.8342 56.6307C40.0401 56.7325 40.2058 56.8603 40.3313 57.0142C40.4592 57.1657 40.5574 57.3149 40.6261 57.4616H40.6829V56.5455H42.185V62.0533C42.185 62.5173 42.0714 62.9055 41.8441 63.218C41.6168 63.5305 41.302 63.7649 40.8995 63.9212C40.4994 64.0798 40.0389 64.1591 39.5181 64.1591ZM39.5501 60.7855C39.7939 60.7855 39.9999 60.7251 40.168 60.6044C40.3384 60.4813 40.4686 60.3061 40.5586 60.0788C40.6509 59.8492 40.6971 59.5746 40.6971 59.255C40.6971 58.9354 40.6521 58.6584 40.5621 58.424C40.4722 58.1873 40.342 58.0038 40.1715 57.8736C40.0011 57.7434 39.7939 57.6783 39.5501 57.6783C39.3015 57.6783 39.092 57.7457 38.9215 57.8807C38.7511 58.0133 38.622 58.1979 38.5344 58.4347C38.4469 58.6714 38.4031 58.9448 38.4031 59.255C38.4031 59.5698 38.4469 59.8421 38.5344 60.0717C38.6244 60.299 38.7534 60.4754 38.9215 60.6009C39.092 60.724 39.3015 60.7855 39.5501 60.7855ZM43.3888 62V56.5455H44.9016V62H43.3888ZM44.1488 55.8423C43.9239 55.8423 43.7309 55.7678 43.57 55.6186C43.4113 55.4671 43.332 55.286 43.332 55.0753C43.332 54.867 43.4113 54.6882 43.57 54.5391C43.7309 54.3875 43.9239 54.3118 44.1488 54.3118C44.3737 54.3118 44.5655 54.3875 44.7241 54.5391C44.8851 54.6882 44.9656 54.867 44.9656 55.0753C44.9656 55.286 44.8851 55.4671 44.7241 55.6186C44.5655 55.7678 44.3737 55.8423 44.1488 55.8423ZM47.6689 62.103C47.3208 62.103 47.0107 62.0426 46.7385 61.9219C46.4662 61.7988 46.2508 61.6177 46.0922 61.3786C45.9359 61.1371 45.8578 60.8364 45.8578 60.4766C45.8578 60.1735 45.9134 59.919 46.0247 59.7131C46.1359 59.5071 46.2875 59.3414 46.4792 59.2159C46.671 59.0904 46.8888 58.9957 47.1326 58.9318C47.3788 58.8679 47.6369 58.8229 47.9068 58.7969C48.224 58.7637 48.4797 58.733 48.6738 58.7045C48.868 58.6738 49.0088 58.6288 49.0964 58.5696C49.184 58.5104 49.2278 58.4228 49.2278 58.3068V58.2855C49.2278 58.0606 49.1568 57.8866 49.0147 57.7635C48.8751 57.6404 48.6762 57.5788 48.4181 57.5788C48.1459 57.5788 47.9293 57.6392 47.7683 57.7599C47.6073 57.8783 47.5008 58.0275 47.4487 58.2074L46.0495 58.0938C46.1206 57.7623 46.2602 57.4759 46.4686 57.2344C46.6769 56.9905 46.9456 56.8035 47.2747 56.6733C47.6061 56.5407 47.9896 56.4744 48.4252 56.4744C48.7283 56.4744 49.0183 56.5099 49.2953 56.581C49.5746 56.652 49.822 56.7621 50.0375 56.9112C50.2553 57.0604 50.4269 57.2521 50.5524 57.4865C50.6779 57.7185 50.7406 57.9967 50.7406 58.321V62H49.3059V61.2436H49.2633C49.1757 61.4141 49.0585 61.5644 48.9118 61.6946C48.765 61.8224 48.5886 61.9231 48.3826 61.9964C48.1767 62.0675 47.9387 62.103 47.6689 62.103ZM48.1021 61.0589C48.3246 61.0589 48.5211 61.0152 48.6916 60.9276C48.862 60.8376 48.9958 60.7169 49.0929 60.5653C49.1899 60.4138 49.2385 60.2422 49.2385 60.0504V59.4716C49.1911 59.5024 49.126 59.5308 49.0431 59.5568C48.9627 59.5805 48.8715 59.603 48.7697 59.6243C48.6679 59.6432 48.5661 59.661 48.4643 59.6776C48.3625 59.6918 48.2702 59.7048 48.1873 59.7166C48.0098 59.7427 47.8547 59.7841 47.7221 59.8409C47.5895 59.8977 47.4866 59.9747 47.4132 60.0717C47.3398 60.1664 47.3031 60.2848 47.3031 60.4268C47.3031 60.6328 47.3777 60.7902 47.5268 60.8991C47.6783 61.0057 47.8701 61.0589 48.1021 61.0589ZM47.4664 55.8743L46.6248 55.8636C46.6248 55.4115 46.7361 55.0646 46.9586 54.8232C47.1835 54.5817 47.457 54.4598 47.7789 54.4574C47.9447 54.4574 48.0867 54.4846 48.2051 54.5391C48.3258 54.5911 48.4335 54.6527 48.5282 54.7237C48.6253 54.7947 48.7176 54.8575 48.8052 54.9119C48.8928 54.964 48.9875 54.9901 49.0893 54.9901C49.2266 54.9877 49.3308 54.9368 49.4018 54.8374C49.4752 54.7356 49.5119 54.603 49.5119 54.4396L50.3393 54.4645C50.3346 54.9119 50.2209 55.2576 49.9984 55.5014C49.7759 55.7429 49.5048 55.8648 49.1852 55.8672C49.0076 55.8672 48.8585 55.8411 48.7377 55.7891C48.6194 55.7346 48.5152 55.6731 48.4252 55.6044C48.3353 55.5334 48.2477 55.4706 48.1625 55.4162C48.0772 55.3617 47.9814 55.3345 47.8748 55.3345C47.7517 55.3345 47.6523 55.383 47.5765 55.4801C47.5031 55.5772 47.4664 55.7086 47.4664 55.8743ZM54.3787 62.1065C53.8271 62.1065 53.3501 61.9893 52.9476 61.755C52.5475 61.5182 52.2386 61.1892 52.0208 60.7678C51.803 60.344 51.6941 59.8527 51.6941 59.294C51.6941 58.7306 51.803 58.2382 52.0208 57.8168C52.2386 57.393 52.5475 57.0639 52.9476 56.8295C53.3501 56.5928 53.8271 56.4744 54.3787 56.4744C54.9303 56.4744 55.4062 56.5928 55.8063 56.8295C56.2087 57.0639 56.5189 57.393 56.7367 57.8168C56.9545 58.2382 57.0634 58.7306 57.0634 59.294C57.0634 59.8527 56.9545 60.344 56.7367 60.7678C56.5189 61.1892 56.2087 61.5182 55.8063 61.755C55.4062 61.9893 54.9303 62.1065 54.3787 62.1065ZM54.3858 60.9347C54.6368 60.9347 54.8463 60.8636 55.0144 60.7216C55.1825 60.5772 55.3091 60.3807 55.3944 60.1321C55.4819 59.8835 55.5257 59.6006 55.5257 59.2834C55.5257 58.9661 55.4819 58.6832 55.3944 58.4347C55.3091 58.1861 55.1825 57.9896 55.0144 57.8452C54.8463 57.7008 54.6368 57.6286 54.3858 57.6286C54.1325 57.6286 53.9194 57.7008 53.7466 57.8452C53.5762 57.9896 53.4471 58.1861 53.3596 58.4347C53.2743 58.6832 53.2317 58.9661 53.2317 59.2834C53.2317 59.6006 53.2743 59.8835 53.3596 60.1321C53.4471 60.3807 53.5762 60.5772 53.7466 60.7216C53.9194 60.8636 54.1325 60.9347 54.3858 60.9347Z" fill="#191A19"/>
</svg>
