<svg width="151" height="59" viewBox="0 0 151 59" fill="none" xmlns="http://www.w3.org/2000/svg">
<g filter="url(#filter0_d_67_247)">
<rect x="4" width="143" height="51" rx="15" fill="#355228"/>
</g>
<path d="M34.388 22.1847H32.1721C32.0868 21.7112 31.9282 21.2945 31.6962 20.9347C31.4642 20.5748 31.1801 20.2694 30.8439 20.0185C30.5078 19.7675 30.1313 19.5781 29.7147 19.4503C29.3027 19.3224 28.8648 19.2585 28.4007 19.2585C27.5627 19.2585 26.8122 19.4692 26.1493 19.8906C25.4912 20.312 24.9703 20.9299 24.5868 21.7443C24.208 22.5587 24.0186 23.553 24.0186 24.7273C24.0186 25.911 24.208 26.91 24.5868 27.7244C24.9703 28.5388 25.4935 29.1544 26.1564 29.571C26.8193 29.9877 27.565 30.196 28.3936 30.196C28.8529 30.196 29.2885 30.1345 29.7005 30.0114C30.1171 29.8835 30.4935 29.6965 30.8297 29.4503C31.1659 29.2041 31.45 28.9034 31.682 28.5483C31.9187 28.1884 32.0821 27.7765 32.1721 27.3125L34.388 27.3196C34.2696 28.0346 34.04 28.6927 33.699 29.294C33.3629 29.8906 32.9296 30.4067 32.3993 30.8423C31.8738 31.2732 31.2724 31.607 30.5953 31.8438C29.9183 32.0805 29.1796 32.1989 28.3794 32.1989C27.12 32.1989 25.9978 31.9006 25.013 31.304C24.0281 30.7027 23.2516 29.8433 22.6834 28.7259C22.12 27.6084 21.8382 26.2756 21.8382 24.7273C21.8382 23.1742 22.1223 21.8414 22.6905 20.7287C23.2587 19.6113 24.0352 18.7543 25.0201 18.1577C26.0049 17.5563 27.1247 17.2557 28.3794 17.2557C29.1512 17.2557 29.8709 17.367 30.5385 17.5895C31.2109 17.8073 31.8146 18.1293 32.3496 18.5554C32.8846 18.9768 33.3274 19.4929 33.6777 20.1037C34.0281 20.7098 34.2649 21.4034 34.388 22.1847ZM41.4387 32.2202C40.416 32.2202 39.5235 31.9858 38.7612 31.517C37.9989 31.0483 37.407 30.3925 36.9856 29.5497C36.5642 28.7069 36.3535 27.7221 36.3535 26.5952C36.3535 25.4635 36.5642 24.474 36.9856 23.6264C37.407 22.7789 37.9989 22.1207 38.7612 21.652C39.5235 21.1832 40.416 20.9489 41.4387 20.9489C42.4615 20.9489 43.354 21.1832 44.1163 21.652C44.8786 22.1207 45.4705 22.7789 45.8919 23.6264C46.3133 24.474 46.524 25.4635 46.524 26.5952C46.524 27.7221 46.3133 28.7069 45.8919 29.5497C45.4705 30.3925 44.8786 31.0483 44.1163 31.517C43.354 31.9858 42.4615 32.2202 41.4387 32.2202ZM41.4458 30.4375C42.1087 30.4375 42.658 30.2623 43.0936 29.9119C43.5292 29.5616 43.8511 29.0952 44.0595 28.5128C44.2726 27.9304 44.3791 27.2888 44.3791 26.5881C44.3791 25.892 44.2726 25.2528 44.0595 24.6705C43.8511 24.0833 43.5292 23.6122 43.0936 23.2571C42.658 22.902 42.1087 22.7244 41.4458 22.7244C40.7782 22.7244 40.2243 22.902 39.7839 23.2571C39.3483 23.6122 39.024 24.0833 38.8109 24.6705C38.6026 25.2528 38.4984 25.892 38.4984 26.5881C38.4984 27.2888 38.6026 27.9304 38.8109 28.5128C39.024 29.0952 39.3483 29.5616 39.7839 29.9119C40.2243 30.2623 40.7782 30.4375 41.4458 30.4375ZM48.8944 32V21.0909H50.9327V22.8665H51.0676C51.2949 22.2652 51.6666 21.7964 52.1827 21.4602C52.6988 21.1193 53.3167 20.9489 54.0364 20.9489C54.7656 20.9489 55.3764 21.1193 55.8688 21.4602C56.3659 21.8011 56.7329 22.2699 56.9696 22.8665H57.0833C57.3437 22.2841 57.758 21.8201 58.3262 21.4744C58.8944 21.1241 59.5714 20.9489 60.3574 20.9489C61.347 20.9489 62.1543 21.259 62.7793 21.8793C63.409 22.4995 63.7239 23.4347 63.7239 24.6847V32H61.6003V24.8835C61.6003 24.1449 61.3991 23.6098 60.9966 23.2784C60.5942 22.947 60.1136 22.7812 59.5549 22.7812C58.8636 22.7812 58.3262 22.9943 57.9426 23.4205C57.5591 23.8419 57.3674 24.384 57.3674 25.0469V32H55.2509V24.7486C55.2509 24.1567 55.0662 23.6809 54.6969 23.321C54.3276 22.9612 53.847 22.7812 53.2551 22.7812C52.8527 22.7812 52.481 22.8878 52.1401 23.1009C51.8039 23.3092 51.5317 23.6004 51.3233 23.9744C51.1197 24.3485 51.0179 24.7817 51.0179 25.2741V32H48.8944ZM71.2718 32.2202C70.197 32.2202 69.2714 31.9905 68.4949 31.5312C67.7231 31.0672 67.1265 30.4162 66.7051 29.5781C66.2884 28.7353 66.0801 27.7481 66.0801 26.6165C66.0801 25.4991 66.2884 24.5142 66.7051 23.6619C67.1265 22.8097 67.7136 22.1444 68.4664 21.6662C69.224 21.188 70.1094 20.9489 71.1227 20.9489C71.7382 20.9489 72.3348 21.0507 72.9125 21.2543C73.4901 21.4579 74.0086 21.7775 74.4679 22.2131C74.9271 22.6487 75.2894 23.2145 75.5545 23.9105C75.8197 24.6018 75.9522 25.4422 75.9522 26.4318V27.1847H67.2804V25.5938H73.8713C73.8713 25.035 73.7576 24.5402 73.5304 24.1094C73.3031 23.6738 72.9835 23.3305 72.5716 23.0795C72.1644 22.8286 71.6861 22.7031 71.1369 22.7031C70.5403 22.7031 70.0195 22.8499 69.5744 23.1435C69.1341 23.4323 68.7931 23.8111 68.5517 24.2798C68.3149 24.7438 68.1966 25.2481 68.1966 25.7926V27.0355C68.1966 27.7647 68.3244 28.3849 68.5801 28.8963C68.8405 29.4077 69.2027 29.7983 69.6667 30.0682C70.1307 30.3333 70.6729 30.4659 71.2931 30.4659C71.6956 30.4659 72.0626 30.4091 72.394 30.2955C72.7254 30.1771 73.0119 30.0019 73.2534 29.7699C73.4949 29.5379 73.6795 29.2514 73.8074 28.9105L75.8173 29.2727C75.6563 29.8646 75.3675 30.383 74.9508 30.8281C74.5389 31.2685 74.0204 31.6117 73.3954 31.858C72.7752 32.0994 72.0673 32.2202 71.2718 32.2202ZM82.9036 32.2202C81.8477 32.2202 80.9386 31.9811 80.1763 31.5028C79.4187 31.0199 78.8364 30.3546 78.4292 29.5071C78.022 28.6596 77.8184 27.6889 77.8184 26.5952C77.8184 25.4872 78.0267 24.5095 78.4434 23.6619C78.86 22.8097 79.4471 22.1444 80.2047 21.6662C80.9623 21.188 81.8548 20.9489 82.8823 20.9489C83.7109 20.9489 84.4495 21.1027 85.0982 21.4105C85.7469 21.7135 86.2701 22.1397 86.6678 22.6889C87.0703 23.2382 87.3094 23.8797 87.3851 24.6136H85.3184C85.2047 24.1023 84.9443 23.6619 84.5371 23.2926C84.1346 22.9233 83.5949 22.7386 82.9178 22.7386C82.3259 22.7386 81.8075 22.8949 81.3624 23.2074C80.9221 23.5152 80.5788 23.9555 80.3326 24.5284C80.0864 25.0966 79.9632 25.7689 79.9632 26.5455C79.9632 27.3409 80.084 28.0275 80.3255 28.6051C80.5669 29.1828 80.9078 29.6302 81.3482 29.9474C81.7933 30.2647 82.3165 30.4233 82.9178 30.4233C83.3203 30.4233 83.6848 30.3499 84.0115 30.2031C84.343 30.0516 84.62 29.8362 84.8425 29.5568C85.0698 29.2775 85.2284 28.9413 85.3184 28.5483H87.3851C87.3094 29.2538 87.0797 29.8835 86.6962 30.4375C86.3127 30.9915 85.7989 31.4271 85.155 31.7443C84.5158 32.0616 83.7653 32.2202 82.9036 32.2202ZM82.1365 31.9432H83.5286L83.415 32.5256C83.8269 32.5919 84.1867 32.7576 84.4945 33.0227C84.8023 33.2879 84.9561 33.688 84.9561 34.223C84.9609 34.8622 84.6839 35.3807 84.1252 35.7784C83.5712 36.1761 82.7686 36.375 81.7175 36.375L81.6749 35.1889C82.1673 35.1889 82.565 35.1179 82.8681 34.9759C83.1758 34.8338 83.3321 34.6042 83.3368 34.2869C83.3416 33.9697 83.2232 33.7472 82.9817 33.6193C82.745 33.4915 82.3662 33.4015 81.8453 33.3494L82.1365 31.9432ZM92.8308 32.2415C92.1395 32.2415 91.5145 32.1136 90.9558 31.858C90.3971 31.5975 89.9544 31.2211 89.6277 30.7287C89.3057 30.2363 89.1447 29.6326 89.1447 28.9176C89.1447 28.3021 89.2631 27.7955 89.4998 27.3977C89.7366 27 90.0562 26.6851 90.4586 26.4531C90.8611 26.2211 91.3109 26.0459 91.8081 25.9276C92.3052 25.8092 92.8118 25.7192 93.3279 25.6577C93.9814 25.5819 94.5117 25.5204 94.9189 25.473C95.3261 25.4209 95.622 25.3381 95.8066 25.2244C95.9913 25.1108 96.0836 24.9261 96.0836 24.6705V24.6207C96.0836 24.0005 95.9084 23.5199 95.5581 23.179C95.2124 22.8381 94.6963 22.6676 94.0098 22.6676C93.2948 22.6676 92.7314 22.8262 92.3194 23.1435C91.9122 23.456 91.6305 23.804 91.4743 24.1875L89.4785 23.733C89.7153 23.0701 90.0609 22.535 90.5154 22.1278C90.9747 21.7159 91.5027 21.4176 92.0993 21.233C92.6958 21.0436 93.3232 20.9489 93.9814 20.9489C94.417 20.9489 94.8786 21.0009 95.3663 21.1051C95.8587 21.2045 96.318 21.3892 96.7441 21.6591C97.175 21.929 97.5278 22.3149 97.8024 22.8168C98.077 23.3139 98.2143 23.9602 98.2143 24.7557V32H96.1404V30.5085H96.0552C95.9179 30.7831 95.7119 31.053 95.4373 31.3182C95.1627 31.5833 94.81 31.8035 94.3791 31.9787C93.9482 32.1539 93.4321 32.2415 92.8308 32.2415ZM93.2924 30.5369C93.8796 30.5369 94.3815 30.4209 94.7981 30.1889C95.2195 29.9569 95.5391 29.6539 95.7569 29.2798C95.9795 28.901 96.0907 28.4962 96.0907 28.0653V26.6591C96.015 26.7348 95.8682 26.8059 95.6504 26.8722C95.4373 26.9337 95.1935 26.9882 94.9189 27.0355C94.6442 27.0781 94.3767 27.1184 94.1163 27.1562C93.8559 27.1894 93.6381 27.2178 93.4629 27.2415C93.051 27.2936 92.6745 27.3812 92.3336 27.5043C91.9975 27.6274 91.7276 27.8049 91.524 28.0369C91.3251 28.2642 91.2257 28.5672 91.2257 28.946C91.2257 29.4716 91.4198 29.8693 91.8081 30.1392C92.1963 30.4044 92.6911 30.5369 93.2924 30.5369ZM101.043 32V21.0909H103.095V22.8239H103.209C103.408 22.2367 103.758 21.7751 104.26 21.4389C104.767 21.098 105.34 20.9276 105.979 20.9276C106.111 20.9276 106.268 20.9323 106.448 20.9418C106.632 20.9512 106.777 20.9631 106.881 20.9773V23.0085C106.796 22.9848 106.644 22.9588 106.426 22.9304C106.209 22.8973 105.991 22.8807 105.773 22.8807C105.271 22.8807 104.824 22.9872 104.431 23.2003C104.042 23.4086 103.735 23.6998 103.507 24.0739C103.28 24.4432 103.166 24.8646 103.166 25.3381V32H101.043Z" fill="#FEFAE0"/>
<path d="M121 20L130.333 26L121 32V20Z" stroke="#FEFAE0" stroke-width="2.04167" stroke-linecap="round" stroke-linejoin="round"/>
<defs>
<filter id="filter0_d_67_247" x="0" y="0" width="151" height="59" filterUnits="userSpaceOnUse" color-interpolation-filters="sRGB">
<feFlood flood-opacity="0" result="BackgroundImageFix"/>
<feColorMatrix in="SourceAlpha" type="matrix" values="0 0 0 0 0 0 0 0 0 0 0 0 0 0 0 0 0 0 127 0" result="hardAlpha"/>
<feOffset dy="4"/>
<feGaussianBlur stdDeviation="2"/>
<feComposite in2="hardAlpha" operator="out"/>
<feColorMatrix type="matrix" values="0 0 0 0 0 0 0 0 0 0 0 0 0 0 0 0 0 0 0.25 0"/>
<feBlend mode="normal" in2="BackgroundImageFix" result="effect1_dropShadow_67_247"/>
<feBlend mode="normal" in="SourceGraphic" in2="effect1_dropShadow_67_247" result="shape"/>
</filter>
</defs>
</svg>
