<svg width="297" height="25" viewBox="0 0 297 25" fill="none" xmlns="http://www.w3.org/2000/svg">
<rect width="297" height="25" rx="5" fill="white"/>
<path d="M178.024 10C178.024 12.25 175.016 14.5 175.016 14.5C175.016 14.5 172.008 12.25 172.008 10C172.008 9.20435 172.325 8.44129 172.889 7.87868C173.453 7.31607 174.218 7 175.016 7C175.813 7 176.579 7.31607 177.143 7.87868C177.707 8.44129 178.024 9.20435 178.024 10Z" stroke="black" stroke-linecap="round" stroke-linejoin="round"/>
<path d="M175.016 11C175.57 11 176.018 10.5523 176.018 10C176.018 9.44772 175.57 9 175.016 9C174.462 9 174.013 9.44772 174.013 10C174.013 10.5523 174.462 11 175.016 11Z" stroke="black" stroke-linecap="round" stroke-linejoin="round"/>
<path d="M173.429 13H171.507C171.405 13.0055 171.307 13.042 171.226 13.1046C171.146 13.1671 171.086 13.2528 171.055 13.35L170.053 16.35C170.003 16.4 170.003 16.45 170.003 16.5C170.003 16.8 170.203 17 170.504 17H179.528C179.829 17 180.029 16.8 180.029 16.5C180.029 16.45 180.029 16.4 179.979 16.35L178.976 13.35C178.946 13.2528 178.886 13.1671 178.806 13.1046C178.725 13.042 178.627 13.0055 178.525 13H176.603" stroke="black" stroke-linecap="round" stroke-linejoin="round"/>
<line x1="83.9033" y1="2.17982e-08" x2="83.9033" y2="25" stroke="#A3A3A3"/>
<line x1="162.5" y1="2.17982e-08" x2="162.5" y2="25" stroke="#A3A3A3"/>
<line x1="213.5" y1="2.17982e-08" x2="213.5" y2="25" stroke="#A3A3A3"/>
<g clip-path="url(#clip0_67_187)">
<path d="M13.2184 17.1666C15.5257 17.1666 17.3961 15.3012 17.3961 13C17.3961 10.6988 15.5257 8.83331 13.2184 8.83331C10.9112 8.83331 9.04077 10.6988 9.04077 13C9.04077 15.3012 10.9112 17.1666 13.2184 17.1666Z" stroke="black" stroke-linecap="round" stroke-linejoin="round"/>
<path d="M13.2185 10.5V13L14.8896 13.8333" stroke="black" stroke-linecap="round" stroke-linejoin="round"/>
</g>
<path d="M222.75 14.0526C223.082 14.0526 223.399 13.914 223.634 13.6672C223.868 13.4205 224 13.0858 224 12.7368C224 12.0105 223.75 11.6842 223.5 11.1579C222.964 10.03 223.388 9.02421 224.5 8C224.75 9.31579 225.5 10.5789 226.5 11.4211C227.5 12.2632 228 13.2632 228 14.3158C228 14.7996 227.909 15.2787 227.734 15.7257C227.558 16.1727 227.3 16.5788 226.975 16.9209C226.65 17.263 226.264 17.5344 225.839 17.7196C225.415 17.9047 224.96 18 224.5 18C224.04 18 223.585 17.9047 223.161 17.7196C222.736 17.5344 222.35 17.263 222.025 16.9209C221.7 16.5788 221.442 16.1727 221.266 15.7257C221.091 15.2787 221 14.7996 221 14.3158C221 13.7089 221.217 13.1084 221.5 12.7368C221.5 13.0858 221.632 13.4205 221.866 13.6672C222.101 13.914 222.418 14.0526 222.75 14.0526Z" stroke="black" stroke-linecap="round" stroke-linejoin="round"/>
<path d="M92.1668 14.6666V13.3775C92.1668 12.2291 91.6089 11.6875 91.6251 10.3333C91.6414 8.85998 92.4322 7.08331 94.0626 7.08331C95.0755 7.08331 95.4168 8.05831 95.4168 8.97915C95.4168 10.6637 94.3334 12.045 94.3334 13.6808V14.6666C94.3334 14.954 94.2193 15.2295 94.0161 15.4327C93.813 15.6358 93.5374 15.75 93.2501 15.75C92.9628 15.75 92.6872 15.6358 92.4841 15.4327C92.2809 15.2295 92.1668 14.954 92.1668 14.6666Z" stroke="black" stroke-linecap="round" stroke-linejoin="round"/>
<path d="M100.833 16.8333V15.5442C100.833 14.3958 101.391 13.8542 101.375 12.5C101.359 11.0267 100.568 9.25 98.9374 9.25C97.9245 9.25 97.5833 10.225 97.5833 11.1458C97.5833 12.8304 98.6666 14.2117 98.6666 15.8475V16.8333C98.6666 17.1207 98.7807 17.3962 98.9839 17.5994C99.1871 17.8025 99.4626 17.9167 99.7499 17.9167C100.037 17.9167 100.313 17.8025 100.516 17.5994C100.719 17.3962 100.833 17.1207 100.833 16.8333Z" stroke="black" stroke-linecap="round" stroke-linejoin="round"/>
<path d="M98.6667 15.2083H100.833" stroke="black" stroke-linecap="round" stroke-linejoin="round"/>
<path d="M92.1667 13.0417H94.3334" stroke="black" stroke-linecap="round" stroke-linejoin="round"/>
<defs>
<clipPath id="clip0_67_187">
<rect width="10.0264" height="10" fill="white" transform="translate(8.20532 8)"/>
</clipPath>
</defs>
</svg>
